<svg width="195" height="62" viewBox="0 0 195 62" fill="none" xmlns="http://www.w3.org/2000/svg"><g clip-path="url(#clip0_96_621)"><path d="M78.398 34.23h10.039v4.613H72.43V8.635h5.934l.034 25.596zm35.457-6.101H96.652c.085 2.114.653 3.663 1.696 4.664a5.449 5.449 0 003.9 1.498 5.607 5.607 0 003.45-1.027 4.544 4.544 0 001.755-2.782h6.317c-.3 1.624-.984 3.15-1.993 4.45a10.38 10.38 0 01-3.917 3.073 13.31 13.31 0 01-11.411-.351 10.3 10.3 0 01-4.155-4.21 13.323 13.323 0 01-1.483-6.462 13.41 13.41 0 011.483-6.444 10.131 10.131 0 014.146-4.278 12.488 12.488 0 016.105-1.455c2.116-.051 4.21.45 6.078 1.455a10.136 10.136 0 014.019 3.996 11.614 11.614 0 011.424 5.785c-.01.7-.08 1.4-.211 2.088zm-7.309-7.051a5.69 5.69 0 00-3.959-1.498 5.902 5.902 0 00-4.07 1.498 6.154 6.154 0 00-1.375 2.012 6.202 6.202 0 00-.49 2.395h11.395a5.375 5.375 0 00-.247-2.378 5.33 5.33 0 00-1.254-2.03zm29.861-3.766a10.875 10.875 0 013.789 6.76h-6.316a4.915 4.915 0 00-1.695-2.977 5.318 5.318 0 00-3.434-1.087 5.046 5.046 0 00-2.176.44 5.103 5.103 0 00-1.784 1.331c-1.056 1.193-1.585 2.924-1.585 5.195 0 2.27.529 4.002 1.585 5.194a5.094 5.094 0 001.783 1.337 5.045 5.045 0 002.177.443 5.318 5.318 0 003.434-1.095 4.943 4.943 0 001.695-2.97h6.308a10.847 10.847 0 01-3.79 6.752 11.56 11.56 0 01-7.562 2.482 12.37 12.37 0 01-6.088-1.463 10.347 10.347 0 01-4.154-4.21 13.32 13.32 0 01-1.484-6.462c-.051-2.24.46-4.456 1.484-6.444a10.22 10.22 0 014.154-4.218 12.531 12.531 0 016.122-1.48 11.554 11.554 0 017.537 2.472zm28.478.171c1.611 1.797 2.417 4.32 2.417 7.565v13.77h-5.935V25.733a6.247 6.247 0 00-1.442-4.382 5.137 5.137 0 00-1.797-1.203 5.104 5.104 0 00-2.128-.354 5.198 5.198 0 00-2.212.385 5.234 5.234 0 00-1.849 1.284 6.834 6.834 0 00-1.526 4.783v12.572h-5.977V7.154h5.977V19.88a7.539 7.539 0 013.044-3.74 9.048 9.048 0 014.934-1.352 8.228 8.228 0 013.543.62 8.296 8.296 0 012.951 2.075zM195 15.13v23.687h-5.935v-4.792a7.541 7.541 0 01-3.077 3.748 9.12 9.12 0 01-4.935 1.344 8.239 8.239 0 01-3.534-.625 8.305 8.305 0 01-2.943-2.07c-1.645-1.798-2.467-4.305-2.467-7.523V15.13h5.934v13.11a6.18 6.18 0 001.442 4.382c.5.526 1.106.937 1.778 1.206a4.992 4.992 0 002.113.351 5.31 5.31 0 004.129-1.66 6.888 6.888 0 001.526-4.792V15.13H195z" fill="#000047"/><path d="M0 22.635c-.003.443.017.885.06 1.326h12.547c6.783 0 12.302 5.083 12.302 11.938v12.588a13.58 13.58 0 003.918 9.552 13.324 13.324 0 009.46 3.96v-3.807a13.346 13.346 0 01-8.521-4.409 13.585 13.585 0 01-3.424-9.027v-9.285a13.568 13.568 0 00-4.144-9.115 13.32 13.32 0 00-9.226-3.721H0z" fill="#2EEFFF"/><path d="M26.282 35.497V47.17a13.2 13.2 0 003.347 9.133 12.96 12.96 0 008.659 4.294V48.924a13.592 13.592 0 00-3.451-9.038 13.353 13.353 0 00-8.555-4.389zM.06 23.962a13.55 13.55 0 004.332 8.682 13.31 13.31 0 008.987 3.495h11.53v-.274c0-6.846-5.502-11.938-12.302-11.938L.06 23.962z" fill="#00C5DE"/><path d="M26.283 35.497V47.17a13.2 13.2 0 003.346 9.133 12.961 12.961 0 008.659 4.294V48.924a13.593 13.593 0 00-3.451-9.038 13.353 13.353 0 00-8.554-4.389zM.06 23.962a13.55 13.55 0 004.332 8.682 13.31 13.31 0 008.987 3.495h11.53v-.274c0-6.846-5.502-11.938-12.302-11.938L.06 23.962z" fill="#2E7AC5"/><path d="M59.797 39.365c0-.436 0-.856-.06-1.292H47.19c-1.605.023-3.2-.277-4.69-.88a12.123 12.123 0 01-3.99-2.637 12.25 12.25 0 01-2.675-3.985 12.345 12.345 0 01-.947-4.718v-12.35a13.576 13.576 0 00-3.924-9.548A13.324 13.324 0 0021.501 0v3.782a13.346 13.346 0 018.524 4.403 13.584 13.584 0 013.43 9.024v9.32a13.559 13.559 0 004.148 9.123 13.313 13.313 0 009.24 3.713h12.954z" fill="#2EEFFF"/><path d="M33.455 26.529V14.83a13.762 13.762 0 00-3.781-9.654 13.451 13.451 0 00-8.13-3.782v11.681a13.585 13.585 0 003.405 9.027 13.347 13.347 0 008.506 4.426zm26.283 11.535a13.55 13.55 0 00-4.322-8.703 13.31 13.31 0 00-8.998-3.509h-11.53c.004 1.62.327 3.223.95 4.716a12.254 12.254 0 002.675 3.983 12.122 12.122 0 003.99 2.634c1.49.603 3.082.902 4.687.88h12.548z" fill="#00C5DE"/><path d="M33.455 26.529V14.83a13.762 13.762 0 00-3.781-9.654 13.451 13.451 0 00-8.13-3.782v11.681a13.585 13.585 0 003.405 9.027 13.347 13.347 0 008.506 4.426zm26.283 11.535a13.55 13.55 0 00-4.322-8.703 13.31 13.31 0 00-8.997-3.509h-11.53c.003 1.62.326 3.223.948 4.716a12.254 12.254 0 002.676 3.983 12.122 12.122 0 003.99 2.634c1.49.603 3.082.902 4.687.88h12.548z" fill="#2E7AC5"/><path d="M50.132 9.49a2.447 2.447 0 01-.958-.188 2.456 2.456 0 01-1.1-.924 2.49 2.49 0 01-.4-1.386c-.01-.342.047-.683.169-1.002a2.431 2.431 0 011.33-1.3 2.523 2.523 0 011.96 0c.292.118.557.296.78.522.228.221.408.49.525.787a2.588 2.588 0 010 1.968 2.42 2.42 0 01-.517.805 2.619 2.619 0 01-.789.53 2.447 2.447 0 01-1 .188zm0-.273c.29-.002.579-.06.848-.172a2.113 2.113 0 001.195-1.197 2.357 2.357 0 000-1.712 2.176 2.176 0 00-.458-.728 2.017 2.017 0 00-.686-.47 2.404 2.404 0 00-1.696 0 2.05 2.05 0 00-.695.47c-.197.202-.352.44-.458.702a2.47 2.47 0 000 1.754c.104.266.26.507.458.71.197.204.434.364.695.471.253.105.523.163.797.172zm-.958-.745V5.52h1.17c.261-.016.52.063.729.222a.854.854 0 01.254.633.802.802 0 01-.254.625c-.21.16-.468.238-.73.223a.673.673 0 01.332.077.71.71 0 01.195.23l.576.942h-.44l-.577-.941a.52.52 0 00-.204-.223.673.673 0 00-.297-.06h-.423v1.224h-.331zm.39-1.557h.737a.699.699 0 00.475-.129.49.49 0 00.094-.402.502.502 0 00-.128-.394.699.699 0 00-.474-.128h-.738l.034 1.053z" fill="#B3B3B3"/></g><defs><clipPath id="clip0_96_621"><path fill="#fff" d="M0 0h195v62H0z"/></clipPath></defs></svg>