<svg width="451" height="143" viewBox="0 0 451 143" fill="none" xmlns="http://www.w3.org/2000/svg"><g clip-path="url(#clip0_94_453)"><path d="M181.322 78.951h23.216V89.59h-37.021V19.916h13.726l.079 59.035zm82.003-14.073h-39.786c.196 4.875 1.51 8.448 3.922 10.757a12.62 12.62 0 009.02 3.454 12.996 12.996 0 007.98-2.368 10.483 10.483 0 004.059-6.415h14.609a23.768 23.768 0 01-4.608 10.264 24.003 24.003 0 01-9.059 7.085 30.866 30.866 0 01-26.394-.809 23.79 23.79 0 01-9.608-9.71 30.655 30.655 0 01-3.431-14.903 30.856 30.856 0 013.431-14.862 23.396 23.396 0 019.589-9.87 28.943 28.943 0 0114.118-3.355 28.299 28.299 0 0114.059 3.356 23.407 23.407 0 019.295 9.217 26.753 26.753 0 013.294 13.343 27.804 27.804 0 01-.49 4.816zm-16.903-16.264a13.184 13.184 0 00-9.157-3.454 13.672 13.672 0 00-9.412 3.454 14.196 14.196 0 00-3.181 4.643 14.272 14.272 0 00-1.133 5.522h26.354a12.36 12.36 0 00-.571-5.485 12.293 12.293 0 00-2.9-4.68zm69.062-8.684a25.067 25.067 0 018.765 15.592h-14.608a11.33 11.33 0 00-3.922-6.868 12.317 12.317 0 00-7.941-2.507 11.68 11.68 0 00-5.033 1.013 11.772 11.772 0 00-4.125 3.073c-2.444 2.75-3.667 6.743-3.667 11.98s1.223 9.231 3.667 11.981a11.775 11.775 0 004.123 3.084 11.698 11.698 0 005.035 1.022 12.319 12.319 0 007.941-2.527 11.385 11.385 0 003.922-6.849h14.589a25.012 25.012 0 01-8.765 15.573 26.788 26.788 0 01-17.491 5.724 28.67 28.67 0 01-14.079-3.375 23.9 23.9 0 01-9.609-9.71 30.655 30.655 0 01-3.431-14.903 30.855 30.855 0 013.431-14.862 23.608 23.608 0 019.609-9.731 29.04 29.04 0 0114.157-3.415 26.766 26.766 0 0117.432 5.704zm65.866.394c3.726 4.145 5.588 9.961 5.588 17.449V89.53h-13.726V59.35a14.39 14.39 0 00-3.333-10.105 11.902 11.902 0 00-4.157-2.776 11.836 11.836 0 00-4.922-.816 12.052 12.052 0 00-5.116.887 12.125 12.125 0 00-4.277 2.962 15.738 15.738 0 00-3.529 11.033V89.53h-13.824V16.5h13.824v29.35a17.403 17.403 0 017.039-8.625 20.978 20.978 0 0111.413-3.119 19.08 19.08 0 018.195 1.431 19.197 19.197 0 016.825 4.786zM451 34.897V89.53h-13.726V78.477a17.402 17.402 0 01-7.118 8.646 21.13 21.13 0 01-11.412 3.098 19.11 19.11 0 01-8.174-1.441 19.214 19.214 0 01-6.807-4.776c-3.804-4.145-5.706-9.928-5.706-17.35V34.897h13.726v30.238a14.232 14.232 0 003.333 10.105 11.647 11.647 0 004.112 2.782c1.553.62 3.22.897 4.889.81 1.771.089 3.54-.208 5.188-.868a12.365 12.365 0 004.361-2.96 15.864 15.864 0 003.53-11.054V34.897H451z" fill="#000047"/><path d="M0 52.206a29.8 29.8 0 00.137 3.06h29.021c15.687 0 28.452 11.724 28.452 27.534v29.034a31.27 31.27 0 009.062 22.031A30.86 30.86 0 0088.552 143v-8.783a30.896 30.896 0 01-19.709-10.169 31.28 31.28 0 01-7.919-20.819V81.813A31.255 31.255 0 0051.34 60.79 30.855 30.855 0 0030 52.206H0z" fill="#2EEFFF"/><path d="M60.787 81.872v26.922a30.396 30.396 0 007.74 21.066 30.01 30.01 0 0020.026 9.903v-26.922a31.301 31.301 0 00-7.982-20.846 30.912 30.912 0 00-19.784-10.123zM.137 55.266a31.219 31.219 0 0010.02 20.024 30.829 30.829 0 0020.785 8.062H57.61v-.631c0-15.79-12.726-27.535-28.452-27.535l-29.02.08z" fill="#00C5DE"/><path d="M60.787 81.872v26.922a30.397 30.397 0 007.74 21.066 30.01 30.01 0 0020.026 9.903v-26.922a31.301 31.301 0 00-7.982-20.846 30.912 30.912 0 00-19.784-10.123zM.137 55.266a31.219 31.219 0 0010.02 20.024 30.829 30.829 0 0020.785 8.062H57.61v-.631c0-15.79-12.726-27.535-28.452-27.535l-29.02.08z" fill="#2E7AC5"/><path d="M138.3 90.794c0-1.007 0-1.974-.137-2.98h-29.021a27.898 27.898 0 01-10.845-2.03 28.045 28.045 0 01-9.23-6.082 28.255 28.255 0 01-6.187-9.192 28.405 28.405 0 01-2.19-10.882V31.146a31.27 31.27 0 00-9.076-22.025A30.86 30.86 0 0049.728 0v8.724A30.894 30.894 0 0169.443 18.88a31.282 31.282 0 017.933 20.814v21.494a31.235 31.235 0 009.593 21.042 30.833 30.833 0 0021.369 8.565H138.3z" fill="#2EEFFF"/><path d="M77.376 61.187V34.206c.1-8.29-3.04-16.286-8.746-22.265a31.147 31.147 0 00-18.804-8.724V30.16a31.284 31.284 0 007.876 20.82 30.895 30.895 0 0019.674 10.208zm60.787 26.607a31.222 31.222 0 00-9.996-20.075 30.83 30.83 0 00-20.809-8.091H80.69c.01 3.736.756 7.433 2.195 10.876a28.254 28.254 0 006.19 9.186 28.044 28.044 0 009.227 6.076 27.9 27.9 0 0010.84 2.028h29.021z" fill="#00C5DE"/><path d="M77.376 61.187V34.206c.1-8.29-3.04-16.286-8.746-22.265a31.147 31.147 0 00-18.804-8.724V30.16a31.284 31.284 0 007.876 20.82 30.895 30.895 0 0019.674 10.208zm60.787 26.607a31.222 31.222 0 00-9.996-20.075 30.83 30.83 0 00-20.809-8.091H80.69c.01 3.736.756 7.433 2.195 10.876a28.254 28.254 0 006.19 9.186 28.044 28.044 0 009.227 6.076 27.9 27.9 0 0010.84 2.028h29.021z" fill="#2E7AC5"/><path d="M115.946 21.89a5.675 5.675 0 01-2.216-.435 5.676 5.676 0 01-2.543-2.131 5.733 5.733 0 01-.927-3.198 5.948 5.948 0 01.392-2.31 5.615 5.615 0 011.241-1.81 5.564 5.564 0 011.837-1.19 5.85 5.85 0 012.275-.454 5.67 5.67 0 012.255.454c.676.274 1.29.684 1.804 1.204a5.18 5.18 0 011.216 1.816c.3.726.453 1.504.451 2.29a5.754 5.754 0 01-.451 2.25 5.58 5.58 0 01-1.196 1.855 6.055 6.055 0 01-1.824 1.224 5.674 5.674 0 01-2.314.434zm0-.632a5.246 5.246 0 001.961-.395 4.663 4.663 0 001.706-1.125 4.896 4.896 0 001.059-1.638 5.422 5.422 0 000-3.948 5.01 5.01 0 00-1.059-1.678 4.669 4.669 0 00-1.588-1.085 5.574 5.574 0 00-3.922 0 4.745 4.745 0 00-1.608 1.085 5.02 5.02 0 00-1.059 1.619 5.688 5.688 0 000 4.046c.24.612.6 1.17 1.059 1.638.456.47 1.004.84 1.608 1.086a5.26 5.26 0 001.843.395zm-2.216-1.718v-6.81h2.706a2.54 2.54 0 011.687.514 1.977 1.977 0 01.588 1.46 1.84 1.84 0 01-.588 1.442 2.54 2.54 0 01-1.687.513c.266-.007.529.054.765.177.187.143.341.325.451.533l1.334 2.171h-1.02l-1.333-2.17a1.207 1.207 0 00-.471-.514 1.561 1.561 0 00-.686-.138h-.981v2.822h-.765zm.902-3.592h1.706c.39.038.78-.068 1.098-.296a1.128 1.128 0 00.216-.928 1.151 1.151 0 00-.294-.908 1.621 1.621 0 00-1.098-.296h-1.706l.078 2.428z" fill="#B3B3B3"/></g><defs><clipPath id="clip0_94_453"><path fill="#fff" d="M0 0h451v143H0z"/></clipPath></defs></svg>