<svg width="123" height="134" viewBox="0 0 123 134" fill="none" xmlns="http://www.w3.org/2000/svg"><path opacity=".3" d="M103.688 63.123v-8.227c0-6.56-2.401-13.197-3.563-16.023a45.383 45.383 0 003.116-.785c3.168-.958 4.811-4.489 3.386-7.473C98.797 14.247 82.229 3.02 58.729 3.02c-31.125 0-48.416 17.264-48.416 44.958v15.089C6.234 65 3.396 69.099 3.396 73.917c0 6.685 5.42 12.104 12.104 12.104.073 0 .138-.02.211-.02 5.468 26.054 21.884 44.978 41.289 44.978S92.822 112.055 98.29 86c.072 0 .137.02.21.02 6.685 0 12.104-5.418 12.104-12.103 0-4.807-2.849-8.86-6.916-10.794z" fill="url(#paint0_linear_2028_5)"/><path d="M39.708 80.833a6.917 6.917 0 100-13.833 6.917 6.917 0 000 13.833zm34.584 0a6.917 6.917 0 100-13.833 6.917 6.917 0 000 13.833z" fill="#41C3DA"/><path d="M31.063 41.063c6.736-5.188 8.645-10.376 8.645-10.376S50.083 41.063 77.75 41.063c11.388 0 20.826-1.563 25.491-2.974 3.168-.958 4.811-4.489 3.386-7.473C98.797 14.247 82.229 3.02 58.729 3.02c-31.125 0-48.416 17.264-48.416 44.958v15.089C6.234 65 3.396 69.099 3.396 73.917c0 6.685 5.42 12.104 12.104 12.104.073 0 .138-.02.211-.02 5.468 26.054 21.884 44.978 41.289 44.978m17.292-20.75h8.645c11.461 0 20.75-9.289 20.75-20.75V61.781" stroke="#41C3DA" stroke-width="5" stroke-linecap="round" stroke-linejoin="round"/><mask id="a" fill="#fff"><path d="M103.688 56.625h5.187c7.639 0 13.833 6.194 13.833 13.833v6.917c0 7.64-6.194 13.833-13.833 13.833h-5.187"/></mask><path d="M103.688 56.625h5.187c7.639 0 13.833 6.194 13.833 13.833v6.917c0 7.64-6.194 13.833-13.833 13.833h-5.187" fill="#41C3DA"/><path d="M103.688 56.625v5h5.187v-10h-5.187v5zm5.187 0v5a8.834 8.834 0 018.833 8.833h10c0-10.4-8.432-18.833-18.833-18.833v5zm13.833 13.833h-5v6.917h10v-6.917h-5zm0 6.917h-5a8.834 8.834 0 01-8.833 8.833v10c10.401 0 18.833-8.432 18.833-18.833h-5zm-13.833 13.833v-5h-5.187v10h5.187v-5z" fill="#41C3DA" mask="url(#a)"/><path d="M65.645 102.083a8.147 8.147 0 110 16.293 8.147 8.147 0 010-16.293z" fill="#41C3DA" stroke="#41C3DA"/><defs><linearGradient id="paint0_linear_2028_5" x1="99.707" y1="19.873" x2="16.181" y2="103.402" gradientUnits="userSpaceOnUse"><stop stop-color="#41C3DA"/><stop offset="1" stop-color="#fff"/></linearGradient></defs></svg>