<svg width="281" height="21" viewBox="0 0 281 21" fill="none" xmlns="http://www.w3.org/2000/svg"><path d="M11.48 20.26c-3.917 0-6.803-.832-8.658-2.496C.967 16.1.04 13.725.04 10.64c0-3.103.927-5.555 2.782-7.358S7.562.578 11.48.578c5.477 0 9.143 1.88 10.998 5.642-1.56.537-3.389 1.343-5.486 2.418-.503-.97-1.3-1.69-2.392-2.158a8.194 8.194 0 00-3.302-.702c-1.664 0-2.903.442-3.718 1.326-.815.867-1.222 1.941-1.222 3.224 0 1.387.433 2.522 1.3 3.406.884.867 2.227 1.3 4.03 1.3 1.439 0 2.583-.234 3.432-.702.85-.485 1.473-1.248 1.872-2.288 1.421.763 3.241 1.62 5.46 2.574-.867 2.097-2.314 3.562-4.342 4.394-2.028.832-4.238 1.248-6.63 1.248zM40.973 20a117.03 117.03 0 00-1.326-3.718h-8.294L30.053 20h-6.526l7.28-18.876h9.568L47.707 20h-6.734zm-2.808-7.774c-.658-1.82-1.334-3.64-2.028-5.46l-.624-1.69a647.468 647.468 0 00-2.678 7.15h5.33zm31.808-4.81c0 1.508-.373 2.782-1.118 3.822-.728 1.04-1.985 1.794-3.77 2.262.208.277.355.494.442.65L69.739 20h-7.072c-.763-1.421-1.968-3.432-3.614-6.032H55.23V20h-6.136c.138-3.363.208-6.509.208-9.438 0-2.93-.07-6.075-.208-9.438h6.136v.026h5.33c3.501 0 5.945.563 7.332 1.69 1.386 1.127 2.08 2.652 2.08 4.576zM55.23 6.142v2.964h3.51c1.473 0 2.582-.043 3.328-.13.762-.104 1.291-.26 1.586-.468.294-.208.442-.511.442-.91 0-.381-.139-.676-.416-.884-.278-.208-.798-.355-1.56-.442-.763-.087-1.89-.13-3.38-.13h-3.51zm37.856.442a316.427 316.427 0 00-7.93-.156V20h-6.5V6.428c-2.583.017-5.217.07-7.904.156v-5.46h22.334v5.46zm4.588 13.676a2.656 2.656 0 01-1.95-.806 2.743 2.743 0 01-.806-1.976c0-.763.268-1.413.806-1.95a2.656 2.656 0 011.95-.806c.745 0 1.386.277 1.924.832.554.537.832 1.179.832 1.924 0 .763-.278 1.421-.832 1.976-.538.537-1.179.806-1.924.806zM124.05 1.124a227.66 227.66 0 00-.182 9.438c0 3.363.06 6.509.182 9.438h-6.11v-7.072h-9.568V20h-6.11c.138-3.363.208-6.509.208-9.438 0-2.93-.07-6.075-.208-9.438h6.11v7.072h9.568V1.124h6.11zM137.7 20.26c-3.969 0-6.89-.858-8.762-2.574-1.872-1.733-2.808-4.16-2.808-7.28 0-3.085.927-5.495 2.782-7.228 1.872-1.733 4.801-2.6 8.788-2.6 4.004 0 6.933.867 8.788 2.6 1.872 1.733 2.808 4.143 2.808 7.228 0 3.137-.927 5.564-2.782 7.28-1.855 1.716-4.793 2.574-8.814 2.574zm0-5.304c1.924 0 3.311-.364 4.16-1.092.849-.745 1.274-1.898 1.274-3.458 0-1.525-.425-2.66-1.274-3.406-.849-.745-2.236-1.118-4.16-1.118-1.907 0-3.285.373-4.134 1.118-.849.745-1.274 1.88-1.274 3.406 0 1.543.425 2.687 1.274 3.432.849.745 2.227 1.118 4.134 1.118zm13.668 2.808a23.256 23.256 0 001.456-2.47c.399-.763.78-1.647 1.144-2.652 1.231.71 2.661 1.265 4.29 1.664s3.146.598 4.55.598c1.439 0 2.453-.121 3.042-.364.589-.26.884-.537.884-.832 0-1.057-1.612-1.586-4.836-1.586-3.536 0-6.101-.364-7.696-1.092-1.595-.745-2.392-1.941-2.392-3.588 0-2.34.971-4.065 2.912-5.174 1.941-1.11 4.463-1.664 7.566-1.664 1.803 0 3.649.234 5.538.702 1.907.45 3.623 1.075 5.148 1.872-.503 1.144-1.031 2.54-1.586 4.186-.104.347-.191.607-.26.78-.884-.71-2.219-1.3-4.004-1.768-1.785-.485-3.363-.728-4.732-.728-1.647 0-2.756.113-3.328.338-.572.208-.858.52-.858.936 0 .416.39.754 1.17 1.014.797.243 1.941.364 3.432.364 3.675 0 6.344.425 8.008 1.274 1.664.832 2.496 2.115 2.496 3.848 0 2.427-.884 4.177-2.652 5.252-1.768 1.057-4.446 1.586-8.034 1.586a28.71 28.71 0 01-5.876-.624c-1.993-.433-3.787-1.057-5.382-1.872zM187.192 1.15c3.449 0 5.85.615 7.202 1.846 1.352 1.213 2.028 2.93 2.028 5.148 0 1.525-.269 2.825-.806 3.9-.538 1.057-1.482 1.89-2.834 2.496-1.352.59-3.216.884-5.59.884h-5.408V20h-6.396c.138-3.363.208-6.509.208-9.438 0-2.93-.07-6.075-.208-9.438h6.396v.026h5.408zm-1.82 9.256c1.438 0 2.513-.052 3.224-.156.728-.121 1.23-.33 1.508-.624.294-.295.442-.728.442-1.3 0-.572-.139-.997-.416-1.274-.26-.295-.754-.494-1.482-.598-.711-.104-1.803-.156-3.276-.156h-3.588v4.108h3.588zm28.227-4.108a154.368 154.368 0 00-4.576-.182v8.892c1.005-.017 2.531-.078 4.576-.182V20h-15.106v-5.174c1.993.104 3.51.165 4.55.182V6.116c-1.04.017-2.557.078-4.55.182V1.124h15.106v5.174zm24.418.286a316.52 316.52 0 00-7.93-.156V20h-6.5V6.428c-2.583.017-5.218.07-7.904.156v-5.46h22.334v5.46zM254.432 20a117.03 117.03 0 00-1.326-3.718h-8.294l-1.3 3.718h-6.526l7.28-18.876h9.568L261.166 20h-6.734zm-2.808-7.774c-.658-1.82-1.334-3.64-2.028-5.46l-.624-1.69a655.37 655.37 0 00-2.678 7.15h5.33zm16.766 2.522c5.027-.035 9.187-.121 12.48-.26a13.942 13.942 0 00-.416 2.548 47.608 47.608 0 00-.078 2.964h-18.33c.139-3.363.208-6.509.208-9.438 0-2.93-.069-6.075-.208-9.438h6.344v13.624z" fill="#333"/></svg>