<svg width="45" height="45" viewBox="0 0 45 45" fill="none" xmlns="http://www.w3.org/2000/svg"><g clip-path="url(#clip0_96_655)"><path d="M45 29.958H.944V15.826c0-.808.408-1.56 1.08-1.99L21.114.545a3.434 3.434 0 013.715 0l19.09 13.29a2.365 2.365 0 011.08 1.99v14.132z" fill="url(#paint0_linear_96_655)"/><path d="M40.594 34.531H5.35V14.56c0-.648.527-1.175 1.175-1.175H39.42c.648 0 1.174.527 1.174 1.175v19.972z" fill="url(#paint1_linear_96_655)"/><path d="M45 16.028v25.244c0 1.143-.941 2.07-2.103 2.07H5.349l5.695-7.513L45 16.028z" fill="url(#paint2_linear_96_655)"/><path d="M.944 16.028v25.244c0 1.143.93 2.07 2.078 2.07h40.364c.656 0 1.233-.308 1.614-.78L.944 16.027z" fill="url(#paint3_linear_96_655)"/></g><defs><linearGradient id="paint0_linear_96_655" x1="17.083" y1="2.019" x2="24.5" y2="26.675" gradientUnits="userSpaceOnUse"><stop stop-color="#0078D3"/><stop offset="1" stop-color="#0858A1"/></linearGradient><linearGradient id="paint1_linear_96_655" x1="22.972" y1="13.847" x2="22.972" y2="29.226" gradientUnits="userSpaceOnUse"><stop stop-color="#fff"/><stop offset=".24" stop-color="#F8F8F7"/><stop offset="1" stop-color="#E3E3E1"/></linearGradient><linearGradient id="paint2_linear_96_655" x1="24.707" y1="29.015" x2="39.099" y2="49.579" gradientUnits="userSpaceOnUse"><stop stop-color="#3CCBF4"/><stop offset="1" stop-color="#1FA0E5"/></linearGradient><linearGradient id="paint3_linear_96_655" x1="-1.313" y1="28.184" x2="42.126" y2="48.965" gradientUnits="userSpaceOnUse"><stop stop-color="#28AFEA"/><stop offset="1" stop-color="#0B88DA"/></linearGradient><clipPath id="clip0_96_655"><path fill="#fff" transform="translate(.944)" d="M0 0h44.056v44.056H0z"/></clipPath></defs></svg>