<svg width="126" height="41" viewBox="0 0 126 41" fill="none" xmlns="http://www.w3.org/2000/svg"><g clip-path="url(#clip0_97_669)"><path d="M55.506 8.687h-5.663v20.748h5.663V8.687z" fill="#595A5C"/><mask id="a" style="mask-type:luminance" maskUnits="userSpaceOnUse" x="13" y="7" width="26" height="34"><path d="M32.61 10.324c-12.106 9.68-19.478 21.593-19.038 29.584 2.05.695 4.198 1.092 6.492 1.092 1.123 0 2.246-.1 3.32-.298-.928-7.197 5.077-18.068 15.524-27.499a20.978 20.978 0 00-3.026-5.41c-1.075.844-2.197 1.638-3.271 2.531z" fill="#fff"/></mask><g mask="url(#a)"><path d="M-.976 32.71L19.576-3.523l33.44 19.656-20.552 36.185-33.44-19.606z" fill="url(#paint0_linear_97_669)"/></g><mask id="b" style="mask-type:luminance" maskUnits="userSpaceOnUse" x="0" y="0" width="27" height="37"><path d="M17.623 3.921C9.325 10.573 3.271 18.266.392 25.017c.39 1.886 1.074 3.623 1.952 5.262a20.364 20.364 0 005.468 6.452c-.732-7.892 4.247-19.805 13.474-30.675A81.203 81.203 0 0126.118.893a18.913 18.913 0 00-3.32-.744C21.041 1.34 19.332 2.53 17.624 3.92z" fill="#fff"/></mask><g mask="url(#b)"><path d="M-15.182 27.648L6.835-11.12 41.69 9.331 19.674 48.099l-34.856-20.45z" fill="url(#paint1_linear_97_669)"/></g><mask id="c" style="mask-type:luminance" maskUnits="userSpaceOnUse" x="1" y="6" width="39" height="31"><path d="M16.5 21.89c-5.223 2.83-10.447 4.815-15.23 6.006a20.34 20.34 0 006.54 8.885c4.59-1.191 9.52-3.127 14.451-5.807 7.567-4.12 13.67-9.233 17.624-14.296-.733-3.872-2.49-7.346-5.029-10.126-3.856 5.41-10.3 10.92-18.355 15.338z" fill="#fff"/></mask><g mask="url(#c)"><path d="M-11.619 14.097l41.838-24.52 22.505 39.66-41.837 24.52-22.506-39.66z" fill="url(#paint2_linear_97_669)"/></g><mask id="d" style="mask-type:luminance" maskUnits="userSpaceOnUse" x="0" y="0" width="126" height="41"><path d="M126 0H0v41h126V0z" fill="#fff"/></mask><g mask="url(#d)"><path d="M58.533 26.308l3.125-3.823c2.05 1.639 4.247 2.482 6.639 2.482 1.562 0 2.343-.546 2.343-1.44v-.049c0-.893-.683-1.34-3.466-2.035-4.345-.993-7.713-2.234-7.713-6.502v-.05c0-3.872 3.026-6.651 7.908-6.651 3.466 0 6.2.943 8.397 2.78l-2.831 4.07c-1.856-1.34-3.906-2.035-5.712-2.035-1.367 0-2.05.546-2.05 1.34v.05c0 .942.683 1.34 3.563 2.035 4.687 1.042 7.567 2.58 7.567 6.452v.05c0 4.219-3.27 6.75-8.25 6.75-3.564.05-6.981-1.141-9.52-3.424z" fill="#595A5C"/></g><mask id="e" style="mask-type:luminance" maskUnits="userSpaceOnUse" x="0" y="0" width="126" height="41"><path d="M126 0H0v41h126V0z" fill="#fff"/></mask><g mask="url(#e)"><path d="M79.964 8.687h8.788c5.126 0 8.445 2.68 8.445 7.247v.05c0 4.913-3.71 7.494-8.738 7.494h-2.832v5.907h-5.663V8.687zm8.348 10.274c2.002 0 3.222-1.092 3.222-2.73v-.05c0-1.786-1.269-2.68-3.27-2.68h-2.685v5.46h2.733z" fill="#595A5C"/></g><mask id="f" style="mask-type:luminance" maskUnits="userSpaceOnUse" x="0" y="0" width="126" height="41"><path d="M126 0H0v41h126V0z" fill="#fff"/></mask><g mask="url(#f)"><path d="M100.468 8.687h16.403V13.5h-10.789v3.177h9.764v4.567h-9.764v3.276h10.935v4.914h-16.549V8.687z" fill="#595A5C"/></g><mask id="g" style="mask-type:luminance" maskUnits="userSpaceOnUse" x="0" y="0" width="126" height="41"><path d="M126 0H0v41h126V0z" fill="#fff"/></mask><g mask="url(#g)"><path d="M121.167 27.002c0-1.34 1.074-2.482 2.441-2.482 1.367 0 2.392 1.093 2.392 2.433 0 1.34-1.074 2.482-2.441 2.482-1.367 0-2.392-1.092-2.392-2.433zm4.589-.05c0-1.24-.928-2.233-2.148-2.233-1.221 0-2.197.993-2.197 2.234 0 1.24.928 2.184 2.148 2.184 1.221.05 2.197-.943 2.197-2.184zm-3.173-1.34h1.123c.341 0 .585.1.781.249.146.149.195.297.195.546a.803.803 0 01-.586.794l.684.993h-.586l-.635-.894h-.537v.894h-.488v-2.581h.049zm1.123 1.241c.292 0 .488-.149.488-.397 0-.248-.196-.397-.488-.397h-.635v.794h.635z" fill="#595A5C"/></g><mask id="h" style="mask-type:luminance" maskUnits="userSpaceOnUse" x="17" y="25" width="23" height="16"><path d="M24.067 37.476a68.129 68.129 0 01-6.98 3.325c.976.15 1.952.199 2.928.199 9.374 0 17.233-6.502 19.528-15.338-3.857 4.22-9.178 8.389-15.476 11.814z" fill="#fff"/></mask><g mask="url(#h)"><path d="M10.594 29.484l23.384-13.7 12.106 21.394-23.335 13.7-12.155-21.394z" fill="url(#paint3_linear_97_669)"/></g><mask id="i" style="mask-type:luminance" maskUnits="userSpaceOnUse" x="0" y="0" width="27" height="19"><path d="M0 18.465c3.808-.794 7.762-2.234 11.716-4.368 6.493-3.524 11.57-8.29 14.5-13.104A19.49 19.49 0 0020.063 0C9.617 0 .976 8.09 0 18.465z" fill="#fff"/></mask><g mask="url(#i)"><path d="M-7.86 4.616l27.534-16.132L34.075 13.85 6.542 30.03-7.86 4.616z" fill="url(#paint4_linear_97_669)"/></g></g><defs><linearGradient id="paint0_linear_97_669" x1="16.264" y1="41.635" x2="36.078" y2="7.882" gradientUnits="userSpaceOnUse"><stop stop-color="#00A2CC"/><stop offset=".224" stop-color="#0196C1"/><stop offset=".673" stop-color="#0779A7"/><stop offset="1" stop-color="#056596"/></linearGradient><linearGradient id="paint1_linear_97_669" x1="4.09" y1="34.586" x2="24.477" y2="-.143" gradientUnits="userSpaceOnUse"><stop stop-color="#00A2CC"/><stop offset=".224" stop-color="#0196C1"/><stop offset=".673" stop-color="#0779A7"/><stop offset="1" stop-color="#056596"/></linearGradient><linearGradient id="paint2_linear_97_669" x1="3.216" y1="31.841" x2="38.621" y2="11.738" gradientUnits="userSpaceOnUse"><stop stop-color="#056596"/><stop offset=".235" stop-color="#056798"/><stop offset=".424" stop-color="#076C9C"/><stop offset=".596" stop-color="#0774A3"/><stop offset=".759" stop-color="#0682AF"/><stop offset=".914" stop-color="#0195C0"/><stop offset="1" stop-color="#00A2CC"/></linearGradient><linearGradient id="paint3_linear_97_669" x1="16.491" y1="40.287" x2="40.223" y2="26.811" gradientUnits="userSpaceOnUse"><stop stop-color="#056596"/><stop offset=".235" stop-color="#056798"/><stop offset=".424" stop-color="#076C9C"/><stop offset=".596" stop-color="#0774A3"/><stop offset=".759" stop-color="#0682AF"/><stop offset=".914" stop-color="#0195C0"/><stop offset="1" stop-color="#00A2CC"/></linearGradient><linearGradient id="paint4_linear_97_669" x1="-.655" y1="17.312" x2="26.797" y2="1.725" gradientUnits="userSpaceOnUse"><stop stop-color="#056596"/><stop offset=".235" stop-color="#056798"/><stop offset=".424" stop-color="#076C9C"/><stop offset=".596" stop-color="#0774A3"/><stop offset=".759" stop-color="#0682AF"/><stop offset=".914" stop-color="#0195C0"/><stop offset="1" stop-color="#00A2CC"/></linearGradient><clipPath id="clip0_97_669"><path fill="#fff" d="M0 0h126v41H0z"/></clipPath></defs></svg>