<svg width="53" height="49" viewBox="0 0 53 49" fill="none" xmlns="http://www.w3.org/2000/svg"><g clip-path="url(#clip0_98_713)"><path d="M53 0H0v49h53V0z" fill="#fff"/><path d="M0 24.5V49h53V0H0v24.5zM27.487 5.653c1.266.045 2.774.293 4.12.68 4.138 1.19 7.683 3.774 10.232 7.443.14.203.256.392.256.42 0 .035-.202.049-.646.049h-.647l-.206-.293c-.57-.794-1.683-2.038-2.414-2.691l-.315-.28-.767.194a38.044 38.044 0 01-4.394.798c-.34.045-.619.094-.619.108 0 .018.063.234.14.478.174.581.444 1.555.444 1.627 0 .045-.14.059-.561.059h-.557l-.076-.262c-.036-.14-.112-.4-.157-.572-.144-.496-.364-1.168-.4-1.208-.018-.023-.314-.018-.655.009-.336.027-1.292.072-2.118.103-1.584.055-3.815.005-5.304-.121-.382-.032-.71-.045-.727-.027-.036.036-.36 1.05-.512 1.622l-.121.456h-.552c-.507 0-.557-.01-.557-.081 0-.1.256-1.055.449-1.673.076-.234.121-.442.099-.46a3.008 3.008 0 00-.503-.08c-1.225-.14-3.002-.47-4.362-.803l-.84-.207-.237.202c-.723.622-1.885 1.903-2.482 2.728l-.269.374h-.66c-.368 0-.664-.014-.664-.027 0-.059.718-1.06 1.122-1.574a18.495 18.495 0 016.328-5.111c1.903-.947 3.76-1.502 5.946-1.786.552-.072 2.015-.148 2.356-.126.085.005.462.023.83.032zm-2.109 10.31c.7.085 1.095.103 2.975.116l2.163.018v4.865h-3.854l-.014-.528-.013-.532-.27-.108c-.771-.307-1.808-.474-2.961-.478-1.136 0-1.648.1-2.137.428a.905.905 0 00-.157 1.416c.436.442.97.581 3.348.879 2.056.261 2.85.428 3.846.82.48.19 1.086.546 1.463.866.556.464 1.014 1.23 1.225 2.042.157.604.202 1.767.09 2.384-.193 1.055-.588 1.813-1.31 2.502-.781.748-1.787 1.24-3.173 1.55-1.53.348-3.698.402-5.87.154-.745-.081-1.176-.099-2.967-.113l-2.1-.018v-4.819h3.86v.992l.175.09c.57.289 1.74.5 2.975.528 2.127.054 3.083-.325 3.087-1.226 0-.352-.098-.541-.394-.749-.431-.306-1.037-.446-2.971-.694-2.325-.302-3.245-.514-4.255-.991-1.61-.767-2.405-1.934-2.567-3.774-.09-.973.068-1.884.45-2.677.856-1.78 2.818-2.804 5.856-3.056.61-.05 2.72.018 3.5.112zm16.986-.028c2.002.302 3.595 1.06 4.829 2.295 1.503 1.51 2.23 3.448 2.226 5.932 0 1.19-.13 2.082-.44 3.02-1.055 3.183-3.788 5.085-7.634 5.315-2.015.117-4.066-.284-5.533-1.087-.992-.54-2.046-1.492-2.616-2.357-.691-1.055-1.118-2.263-1.288-3.674-.068-.564-.054-1.988.022-2.578.368-2.795 1.858-4.914 4.255-6.054 1-.474 2.082-.758 3.42-.897.448-.046 2.266.008 2.76.085zm-27.869 2.209v2.006h-2.603v8.114h2.603v4.012l-5.17-.009-5.174-.014-.013-1.997-.01-1.992h2.604V20.15l-1.288-.01-1.293-.013-.013-1.996-.01-1.993h10.367v2.006zm-2.109 16.237c.57.812 1.818 2.205 2.522 2.818l.256.22.732-.18a35.499 35.499 0 014.231-.78c.445-.054.813-.103.822-.108.009-.005-.05-.207-.126-.455-.184-.582-.449-1.546-.449-1.646 0-.072.054-.08.557-.08h.552l.12.436c.068.244.207.713.306 1.046l.189.6.25-.027c1.45-.149 5.23-.19 7.002-.072.556.036 1.14.067 1.297.067h.291l.153-.473c.085-.261.22-.717.3-1.014l.149-.541.565-.014c.377-.009.566.005.566.036 0 .077-.39 1.483-.512 1.835l-.112.325.143.022c.081.014.395.059.705.095 1.315.167 2.948.478 4.187.793.642.167.718.176.808.117.215-.144 1.185-1.113 1.651-1.64.27-.312.665-.794.875-1.078l.39-.514h.643c.354 0 .646.018.646.036 0 .059-.593.915-.938 1.362a18.645 18.645 0 01-12.727 7.131c-.835.09-3.25.077-4.04-.023-4.105-.531-7.566-2.154-10.568-4.958-1.032-.965-2.324-2.524-2.89-3.494-.027-.04.112-.054.637-.054h.669l.148.212z" fill="#E30613"/><path d="M25.89 6.775c-1.037.356-2.024 1.483-2.93 3.345-.207.42-.387.802-.4.843-.023.063.013.081.206.104 1.113.121 4.03.184 5.619.117 1.907-.081 2.087-.095 2.087-.18 0-.113-.673-1.47-.96-1.93-.584-.947-1.163-1.605-1.755-1.997-.624-.406-1.257-.51-1.867-.302zm-2.509.176c-2.405.51-4.37 1.326-6.426 2.678-.503.329-.664.469-.539.469.018 0 .305.063.637.135 1.087.248 3.353.622 4.143.685l.17.014.189-.451c.547-1.285 1.4-2.687 2.09-3.417.154-.162.154-.167.05-.162a2.281 2.281 0 00-.314.05zm6.036.135c.31.36.821 1.069 1.081 1.488.32.518.8 1.465 1.006 1.992l.157.393.292-.028c1.413-.14 4.757-.73 4.757-.842 0-.023-.288-.23-.638-.46-1.912-1.267-4.03-2.169-6.134-2.615-.723-.153-.718-.153-.521.072zm10.618 12.572c-1.494.23-2.365 1.299-2.634 3.228-.104.753-.068 2.371.067 3.002.426 1.975 1.526 2.899 3.343 2.813.947-.045 1.463-.252 2.024-.82.781-.78 1.095-1.858 1.1-3.72 0-1.527-.22-2.497-.75-3.299a2.737 2.737 0 00-1.629-1.14c-.372-.086-1.148-.122-1.521-.064zM24.593 37.217c-1.212.067-2.042.117-2.056.13-.036.036.53 1.204.826 1.718.637 1.1 1.266 1.84 1.912 2.263.422.275.677.365 1.095.401.408.032.704-.036 1.162-.27.516-.266 1.261-1.02 1.768-1.79.337-.51 1.172-2.11 1.172-2.245 0-.072-.095-.086-.965-.144-.736-.05-4.322-.095-4.914-.063zm-3.703.275c-.072.009-.502.067-.956.13-1.077.15-1.92.293-2.867.496-.602.13-.763.18-.727.226.08.099 1.26.86 1.853 1.19a17.383 17.383 0 004.874 1.848c.345.077.65.135.677.135.027 0-.058-.126-.192-.284-.728-.834-1.414-1.97-1.97-3.255l-.216-.495-.17-.005a1.66 1.66 0 00-.306.014zm10.663.252c-.166.424-.722 1.533-1.014 2.015a10.846 10.846 0 01-1.028 1.438c-.139.162-.242.298-.233.311.05.05 1.575-.32 2.392-.581 1.467-.47 3.316-1.389 4.654-2.313l.395-.275-.238-.054a41.833 41.833 0 00-3.788-.69c-.395-.05-.79-.099-.875-.112-.157-.018-.157-.018-.265.261z" fill="#E30613"/></g><defs><clipPath id="clip0_98_713"><path fill="#fff" d="M0 0h53v49H0z"/></clipPath></defs></svg>