<svg width="45" height="45" viewBox="0 0 45 45" fill="none" xmlns="http://www.w3.org/2000/svg"><g clip-path="url(#clip0_96_644)"><path d="M22.028 44.056c12.166 0 22.028-9.862 22.028-22.028C44.056 9.862 34.194 0 22.028 0 9.862 0 0 9.862 0 22.028c0 12.166 9.862 22.028 22.028 22.028z" fill="url(#paint0_linear_96_644)"/><path fill-rule="evenodd" clip-rule="evenodd" d="M9.971 21.795c6.422-2.797 10.704-4.642 12.846-5.533 6.118-2.545 7.39-2.987 8.218-3.001.182-.003.59.042.853.256.223.18.284.425.314.597.03.171.066.562.037.867-.332 3.483-1.766 11.936-2.496 15.837-.309 1.65-.917 2.204-1.505 2.258-1.28.118-2.251-.845-3.49-1.657-1.939-1.271-3.034-2.062-4.916-3.303-2.175-1.433-.765-2.22.474-3.508.325-.337 5.961-5.463 6.07-5.928.014-.058.026-.275-.102-.39-.13-.114-.32-.075-.456-.044-.195.044-3.292 2.091-9.292 6.141-.88.604-1.675.898-2.389.883-.786-.017-2.3-.445-3.424-.81-1.38-.449-2.476-.686-2.38-1.448.05-.396.595-.802 1.638-1.217z" fill="#fff"/></g><defs><linearGradient id="paint0_linear_96_644" x1="22.028" y1="0" x2="22.028" y2="43.73" gradientUnits="userSpaceOnUse"><stop stop-color="#2AABEE"/><stop offset="1" stop-color="#229ED9"/></linearGradient><clipPath id="clip0_96_644"><path fill="#fff" d="M0 0h44.056v44.056H0z"/></clipPath></defs></svg>