<svg width="195" height="62" viewBox="0 0 195 62" fill="none" xmlns="http://www.w3.org/2000/svg">
<g clip-path="url(#clip0_96_621)">
<path d="M78.3984 34.2306H88.4366V38.8432H72.4297V8.63477H78.3645L78.3984 34.2306Z" fill="#000047"/>
<path d="M113.855 28.129H96.6521C96.7369 30.2428 97.305 31.7917 98.3478 32.793C99.4011 33.792 100.803 34.3303 102.248 34.2905C103.478 34.3371 104.69 33.9765 105.698 33.2636C106.608 32.591 107.234 31.5986 107.453 30.4824H113.77C113.47 32.1058 112.786 33.6323 111.777 34.9324C110.737 36.2612 109.393 37.3155 107.86 38.0046C106.05 38.7965 104.088 39.1756 102.116 39.115C100.143 39.0544 98.2083 38.5554 96.4487 37.6537C94.6858 36.6905 93.2414 35.2266 92.2943 33.4433C91.2639 31.4519 90.7533 29.2283 90.8106 26.9823C90.7599 24.7425 91.2702 22.5261 92.2943 20.5384C93.22 18.7249 94.6645 17.2341 96.4402 16.2596C98.3207 15.2623 100.421 14.7618 102.545 14.8048C104.661 14.7537 106.755 15.2548 108.623 16.2596C110.312 17.1789 111.706 18.5653 112.642 20.256C113.611 22.0251 114.102 24.02 114.066 26.041C114.056 26.7419 113.986 27.4406 113.855 28.129ZM106.546 21.0776C105.464 20.0865 104.048 19.5507 102.587 19.58C101.092 19.5438 99.6385 20.0787 98.5174 21.0776C97.9302 21.6489 97.4626 22.3333 97.1422 23.0903C96.8218 23.8473 96.6551 24.6616 96.6521 25.4847H108.047C108.144 24.6834 108.06 23.8701 107.8 23.1066C107.54 22.343 107.111 21.6492 106.546 21.0776Z" fill="#000047"/>
<path d="M136.407 17.3123C138.453 19.0166 139.803 21.4245 140.196 24.0728H133.88C133.689 22.9062 133.087 21.8486 132.185 21.0948C131.199 20.3432 129.985 19.9591 128.751 20.0079C128.002 19.991 127.259 20.1409 126.575 20.4471C125.891 20.7533 125.282 21.2082 124.791 21.7794C123.735 22.9717 123.206 24.7032 123.206 26.9739C123.206 29.2445 123.735 30.976 124.791 32.1683C125.281 32.741 125.889 33.1976 126.574 33.5053C127.258 33.813 128.002 33.9643 128.751 33.9483C129.986 33.9947 131.2 33.6076 132.185 32.8529C133.083 32.0997 133.685 31.0461 133.88 29.8834H140.188C139.795 32.5295 138.445 34.9348 136.398 36.6354C134.244 38.3337 131.567 39.2123 128.836 39.1171C126.716 39.1598 124.621 38.6562 122.748 37.6538C120.987 36.6881 119.543 35.2249 118.594 33.4434C117.563 31.452 117.053 29.2283 117.11 26.9824C117.059 24.7426 117.57 22.5262 118.594 20.5385C119.536 18.7493 120.981 17.2814 122.748 16.3196C124.632 15.3123 126.738 14.803 128.87 14.8391C131.591 14.7468 134.259 15.6221 136.407 17.3123Z" fill="#000047"/>
<path d="M164.885 17.4834C166.496 19.2805 167.302 21.8021 167.302 25.0483V38.8175H161.367V25.7329C161.462 24.1398 160.946 22.5708 159.925 21.3514C159.417 20.8267 158.805 20.4166 158.128 20.1481C157.451 19.8796 156.726 19.7589 156 19.7939C155.244 19.7595 154.489 19.8908 153.788 20.1789C153.087 20.4669 152.456 20.9049 151.939 21.4626C150.843 22.8018 150.297 24.5135 150.413 26.2464V38.8175H144.436V7.1543H150.413V19.8795C150.994 18.3298 152.063 17.0158 153.457 16.1398C154.94 15.2231 156.652 14.754 158.391 14.7877C159.603 14.7306 160.812 14.9424 161.934 15.4082C163.056 15.8739 164.064 16.5823 164.885 17.4834Z" fill="#000047"/>
<path d="M195 15.1299V38.8174H189.065V34.0251C188.477 35.583 187.395 36.9008 185.988 37.7734C184.502 38.6835 182.791 39.1494 181.053 39.1169C179.844 39.1709 178.638 38.9576 177.519 38.4919C176.4 38.0263 175.396 37.3196 174.576 36.4213C172.931 34.6242 172.109 32.1168 172.109 28.8991V15.1299H178.043V28.2402C177.941 29.8343 178.458 31.4058 179.485 32.6217C179.985 33.1478 180.591 33.5592 181.263 33.8279C181.934 34.0966 182.655 34.2164 183.376 34.1792C184.142 34.2173 184.907 34.0888 185.62 33.8023C186.332 33.5159 186.975 33.0782 187.505 32.519C188.598 31.1751 189.144 29.4618 189.031 27.7267V15.1299H195Z" fill="#000047"/>
<path d="M-8.82368e-05 22.6348C-0.00298936 23.0776 0.0168197 23.5204 0.0592596 23.9612H12.6071C19.3897 23.9612 24.909 29.0444 24.909 35.8991V48.4874C24.909 52.0696 26.3183 55.5053 28.8271 58.0391C31.3358 60.5729 34.7387 61.9976 38.2877 61.9998V58.1917C35.0057 57.833 31.9708 56.2628 29.7658 53.783C27.5609 51.3031 26.3415 48.0883 26.3419 44.7562V35.4712C26.17 32.0089 24.6864 28.7457 22.1978 26.3564C19.7093 23.9672 16.4062 22.6348 12.9717 22.6348H-8.82368e-05Z" fill="#2EEFFF"/>
<path d="M26.2825 35.4971V47.1697C26.1966 50.5345 27.3946 53.8041 29.6288 56.3029C31.863 58.8017 34.9628 60.3388 38.2877 60.5966V48.924C38.2826 45.5846 37.0533 42.3653 34.8367 39.8862C32.6201 37.4071 29.5731 35.8437 26.2825 35.4971Z" fill="#00C5DE"/>
<path d="M0.0593262 23.9615C0.385598 27.298 1.92989 30.3927 4.39176 32.6436C6.85363 34.8944 10.057 36.1403 13.3787 36.139H24.9091V35.8651C24.9091 29.019 19.4067 23.9272 12.6072 23.9272L0.0593262 23.9615Z" fill="#00C5DE"/>
<path d="M26.2826 35.4971V47.1697C26.1968 50.5345 27.3947 53.8041 29.6289 56.3029C31.8631 58.8017 34.9629 60.3388 38.2879 60.5966V48.924C38.2827 45.5846 37.0534 42.3653 34.8368 39.8862C32.6202 37.4071 29.5732 35.8437 26.2826 35.4971Z" fill="#2E7AC5"/>
<path d="M0.0593262 23.9615C0.385598 27.298 1.92989 30.3927 4.39176 32.6436C6.85363 34.8944 10.057 36.1403 13.3787 36.139H24.9091V35.8651C24.9091 29.019 19.4067 23.9272 12.6072 23.9272L0.0593262 23.9615Z" fill="#2E7AC5"/>
<path d="M59.7972 39.3651C59.7972 38.9286 59.7972 38.5093 59.7378 38.0729H47.19C45.5847 38.0955 43.9909 37.7964 42.5009 37.1927C41.011 36.589 39.6546 35.6929 38.5103 34.5562C37.366 33.4195 36.4566 32.0649 35.8349 30.5709C35.2131 29.0768 34.8912 27.4731 34.888 25.8526V13.5039C34.8858 9.92168 33.4744 6.48692 30.964 3.95469C28.4537 1.42246 25.0499 -7.18393e-07 21.5009 0V3.78247C24.783 4.13909 27.8188 5.70712 30.0253 8.1854C32.2317 10.6637 33.4533 13.8774 33.4552 17.2094V26.5286C33.6251 29.9946 35.1105 33.2616 37.6031 35.6517C40.0958 38.0418 43.4043 39.3715 46.8424 39.3651H59.7972Z" fill="#2EEFFF"/>
<path d="M33.4552 26.5288V14.8305C33.4988 11.2366 32.1407 7.76951 29.6739 5.17749C27.4685 3.02029 24.6007 1.68613 21.5432 1.39502V13.0762C21.5378 16.4059 22.7505 19.6205 24.9489 22.1032C27.1473 24.5859 30.1764 26.1618 33.4552 26.5288Z" fill="#00C5DE"/>
<path d="M59.7377 38.0643C59.4194 34.7216 57.8785 31.6185 55.4158 29.3606C52.9531 27.1027 49.7453 25.852 46.4184 25.8525H34.8879C34.8923 27.4723 35.2149 29.0751 35.8372 30.5682C36.4595 32.0612 37.3691 33.4148 38.5132 34.5506C39.6574 35.6864 41.0134 36.5818 42.5028 37.1849C43.9922 37.788 45.5853 38.0869 47.1899 38.0643H59.7377Z" fill="#00C5DE"/>
<path d="M33.4552 26.5288V14.8305C33.4988 11.2366 32.1407 7.76951 29.6739 5.17749C27.4685 3.02029 24.6007 1.68613 21.5432 1.39502V13.0762C21.5378 16.4059 22.7505 19.6205 24.9489 22.1032C27.1473 24.5859 30.1764 26.1618 33.4552 26.5288Z" fill="#2E7AC5"/>
<path d="M59.7378 38.0643C59.4195 34.7216 57.8786 31.6185 55.4159 29.3606C52.9533 27.1027 49.7455 25.852 46.4185 25.8525H34.8881C34.8924 27.4723 35.215 29.0751 35.8373 30.5682C36.4596 32.0612 37.3692 33.4148 38.5133 34.5506C39.6575 35.6864 41.0135 36.5818 42.5029 37.1849C43.9923 37.788 45.5854 38.0869 47.19 38.0643H59.7378Z" fill="#2E7AC5"/>
<path d="M50.1319 9.49037C49.8034 9.49263 49.4776 9.42862 49.1739 9.3021C48.7244 9.1114 48.3415 8.78966 48.0741 8.37805C47.8068 7.96644 47.6672 7.48368 47.6733 6.99154C47.6631 6.64973 47.7208 6.30932 47.8428 5.9903C47.9686 5.69551 48.151 5.42878 48.3795 5.20552C48.6079 4.98226 48.8779 4.80689 49.1739 4.68954C49.4855 4.55872 49.8199 4.49181 50.1574 4.49271C50.4922 4.49085 50.824 4.55782 51.1324 4.68954C51.4248 4.80833 51.6902 4.98594 51.9124 5.21155C52.1413 5.43311 52.3205 5.70156 52.438 5.99886C52.5676 6.31341 52.6339 6.65086 52.633 6.99154C52.634 7.32668 52.5676 7.65855 52.438 7.96711C52.3207 8.26747 52.1448 8.54101 51.9209 8.77153C51.6922 8.99529 51.425 9.17509 51.1324 9.3021C50.8155 9.43435 50.4748 9.49847 50.1319 9.49037ZM50.1319 9.21652C50.4228 9.21456 50.7106 9.15647 50.9798 9.04537C51.2583 8.93965 51.5101 8.77308 51.7174 8.55759C51.9157 8.3543 52.0715 8.11272 52.1752 7.8473C52.3897 7.29733 52.3897 6.68575 52.1752 6.13578C52.0722 5.8649 51.9166 5.61757 51.7174 5.40838C51.5233 5.20515 51.2894 5.04487 51.0306 4.93771C50.4838 4.73173 49.8818 4.73173 49.335 4.93771C49.0737 5.04471 48.837 5.20493 48.6398 5.40838C48.4434 5.61001 48.2879 5.84837 48.1819 6.1101C47.9672 6.67479 47.9672 7.29974 48.1819 7.86442C48.2857 8.12984 48.4414 8.37141 48.6398 8.5747C48.837 8.77815 49.0737 8.93837 49.335 9.04537C49.5884 9.15007 49.8583 9.20804 50.1319 9.21652ZM49.1739 8.47201V5.51963H50.3439C50.6054 5.50397 50.8639 5.58285 51.073 5.74213C51.1563 5.82439 51.2218 5.92307 51.2655 6.03202C51.3093 6.14098 51.3304 6.25786 51.3274 6.37539C51.333 6.49197 51.3131 6.60837 51.2691 6.71633C51.2252 6.82429 51.1582 6.92117 51.073 7.0001C50.8639 7.15937 50.6054 7.23825 50.3439 7.2226C50.4588 7.21957 50.5726 7.24608 50.6746 7.29961C50.7553 7.36155 50.8218 7.44037 50.8696 7.53067L51.4461 8.47201H51.0052L50.4287 7.53067C50.3841 7.43784 50.3133 7.36042 50.2252 7.30817C50.132 7.2659 50.0306 7.24543 49.9285 7.24827H49.5046V8.47201H49.1739ZM49.5639 6.91452H50.3015C50.4699 6.93073 50.6385 6.88516 50.7763 6.78616C50.82 6.73009 50.8511 6.66501 50.8672 6.59551C50.8833 6.52601 50.8841 6.45379 50.8696 6.38395C50.8777 6.31296 50.8705 6.24104 50.8486 6.1731C50.8266 6.10516 50.7904 6.0428 50.7424 5.9903C50.6046 5.8913 50.436 5.84573 50.2676 5.86193H49.53L49.5639 6.91452Z" fill="#B3B3B3"/>
</g>
<defs>
<clipPath id="clip0_96_621">
<rect width="195" height="62" fill="white"/>
</clipPath>
</defs>
</svg>
