<svg width="451" height="143" viewBox="0 0 451 143" fill="none" xmlns="http://www.w3.org/2000/svg">
<g clip-path="url(#clip0_94_453)">
<path d="M181.322 78.9511H204.538V89.5898H167.517V19.9155H181.243L181.322 78.9511Z" fill="#000047"/>
<path d="M263.325 64.8781H223.539C223.735 69.7533 225.049 73.3258 227.461 75.6351C229.897 77.9394 233.139 79.181 236.481 79.0892C239.326 79.1967 242.129 78.3649 244.461 76.7207C246.565 75.1694 248.013 72.8803 248.52 70.3059H263.129C262.435 74.0503 260.854 77.5711 258.521 80.5696C256.115 83.6345 253.007 86.0661 249.462 87.6554C245.274 89.482 240.737 90.3565 236.175 90.2166C231.613 90.0768 227.138 88.9259 223.068 86.8462C218.991 84.6245 215.651 81.2483 213.46 77.1352C211.077 72.542 209.896 67.4133 210.029 62.2332C209.911 57.0673 211.092 51.9551 213.46 47.3707C215.601 43.1878 218.942 39.7494 223.049 37.5018C227.398 35.2016 232.255 34.0472 237.167 34.1464C242.062 34.0284 246.905 35.1842 251.226 37.5018C255.132 39.6222 258.357 42.8197 260.521 46.7193C262.761 50.7996 263.897 55.4008 263.815 60.0621C263.792 61.6787 263.628 63.2903 263.325 64.8781ZM246.422 48.6142C243.92 46.3284 240.644 45.0926 237.265 45.1601C233.807 45.0767 230.446 46.3103 227.853 48.6142C226.495 49.9319 225.413 51.5105 224.672 53.2565C223.931 55.0025 223.546 56.8804 223.539 58.7791H249.893C250.118 56.9308 249.923 55.0551 249.322 53.294C248.72 51.5329 247.729 49.9326 246.422 48.6142Z" fill="#000047"/>
<path d="M315.484 39.9294C320.217 43.8603 323.339 49.414 324.249 55.5223H309.641C309.199 52.8316 307.806 50.3923 305.719 48.6535C303.439 46.92 300.633 46.0343 297.778 46.1468C296.047 46.1076 294.328 46.4535 292.745 47.1598C291.162 47.866 289.754 48.9152 288.62 50.2325C286.176 52.9827 284.953 56.9763 284.953 62.2134C284.953 67.4504 286.176 71.444 288.62 74.1942C289.752 75.5151 291.16 76.568 292.743 77.2777C294.326 77.9874 296.045 78.3364 297.778 78.2996C300.635 78.4065 303.441 77.5138 305.719 75.7732C307.798 74.0359 309.19 71.6059 309.641 68.9242H324.23C323.32 75.0272 320.198 80.575 315.465 84.4973C310.483 88.4144 304.291 90.4408 297.974 90.2212C293.072 90.3197 288.226 89.158 283.895 86.8461C279.821 84.6188 276.482 81.244 274.286 77.1351C271.903 72.5419 270.722 67.4132 270.855 62.2331C270.737 57.0671 271.918 51.955 274.286 47.3706C276.465 43.2439 279.808 39.8583 283.895 37.6399C288.252 35.3166 293.122 34.1419 298.052 34.2252C304.347 34.0123 310.517 36.0312 315.484 39.9294Z" fill="#000047"/>
<path d="M381.35 40.3244C385.076 44.4694 386.938 50.2854 386.938 57.7726V89.5306H373.212V59.3516C373.432 55.6771 372.238 52.0584 369.879 49.2459C368.703 48.0356 367.287 47.0897 365.722 46.4705C364.157 45.8514 362.479 45.5729 360.8 45.6536C359.051 45.5742 357.306 45.8771 355.684 46.5415C354.063 47.206 352.604 48.2161 351.407 49.5025C348.873 52.5911 347.61 56.5392 347.878 60.5359V89.5306H334.054V16.501H347.878V45.851C349.221 42.2768 351.695 39.2461 354.917 37.2256C358.348 35.1113 362.308 34.0292 366.33 34.107C369.133 33.9755 371.93 34.464 374.525 35.5381C377.12 36.6123 379.45 38.2461 381.35 40.3244Z" fill="#000047"/>
<path d="M451 34.8965V89.5306H437.274V78.4774C435.914 82.0706 433.411 85.1101 430.156 87.1226C426.72 89.2218 422.763 90.2964 418.744 90.2214C415.948 90.3458 413.158 89.8538 410.57 88.7799C407.983 87.706 405.659 86.076 403.763 84.004C399.959 79.8591 398.057 74.0759 398.057 66.6545V34.8965H411.783V65.1347C411.547 68.8114 412.742 72.4361 415.116 75.2404C416.273 76.4539 417.675 77.4027 419.228 78.0225C420.781 78.6424 422.448 78.9187 424.117 78.8327C425.888 78.9207 427.657 78.6243 429.305 77.9636C430.953 77.3029 432.44 76.2935 433.666 75.0036C436.194 71.9041 437.456 67.9523 437.196 63.9505V34.8965H451Z" fill="#000047"/>
<path d="M-8.95176e-05 52.2065C-0.00679929 53.228 0.0390156 54.2492 0.137171 55.2659H29.158C44.845 55.2659 57.6103 66.9901 57.6103 82.8001V111.834C57.6103 120.097 60.8696 128.021 66.6719 133.865C72.4742 139.709 80.3445 142.995 88.5528 143V134.217C80.9621 133.389 73.9427 129.768 68.8431 124.048C63.7435 118.329 60.9233 110.914 60.9241 103.229V81.8132C60.5267 73.8275 57.0954 66.301 51.3398 60.7904C45.5842 55.2798 37.9446 52.2067 30.0012 52.2065H-8.95176e-05Z" fill="#2EEFFF"/>
<path d="M60.787 81.8721V108.794C60.5883 116.555 63.3589 124.096 68.5263 129.86C73.6936 135.623 80.8629 139.168 88.5529 139.763V112.841C88.5409 105.138 85.6978 97.7133 80.5713 91.9954C75.4447 86.2775 68.3974 82.6715 60.787 81.8721Z" fill="#00C5DE"/>
<path d="M0.137207 55.2655C0.891816 62.9611 4.46349 70.0989 10.1574 75.2903C15.8512 80.4817 23.2601 83.3554 30.9425 83.3523H57.6103V82.7207C57.6103 66.9305 44.8843 55.1865 29.1581 55.1865L0.137207 55.2655Z" fill="#00C5DE"/>
<path d="M60.7868 81.8721V108.794C60.5882 116.555 63.3588 124.096 68.5261 129.86C73.6935 135.623 80.8628 139.168 88.5528 139.763V112.841C88.5408 105.138 85.6977 97.7133 80.5712 91.9954C75.4446 86.2775 68.3973 82.6715 60.7868 81.8721Z" fill="#2E7AC5"/>
<path d="M0.137207 55.2655C0.891816 62.9611 4.46349 70.0989 10.1574 75.2903C15.8512 80.4817 23.2601 83.3554 30.9425 83.3523H57.6103V82.7207C57.6103 66.9305 44.8843 55.1865 29.1581 55.1865L0.137207 55.2655Z" fill="#2E7AC5"/>
<path d="M138.3 90.7937C138.3 89.787 138.3 88.8199 138.163 87.8133H109.142C105.429 87.8655 101.743 87.1755 98.2971 85.7832C94.8511 84.3908 91.714 82.3239 89.0675 79.7022C86.421 77.0805 84.3177 73.9562 82.8796 70.5103C81.4415 67.0643 80.6972 63.3654 80.6898 59.6277V31.1462C80.6846 22.8839 77.4202 14.9618 71.6143 9.1213C65.8083 3.28083 57.9359 -1.65694e-06 49.7277 0V8.72409C57.3186 9.54661 64.3399 13.1632 69.4431 18.8792C74.5463 24.5952 77.3714 32.0076 77.3759 39.6926V61.187C77.769 69.1812 81.2043 76.7162 86.9694 82.2289C92.7344 87.7415 100.386 90.8085 108.338 90.7937H138.3Z" fill="#2EEFFF"/>
<path d="M77.3758 61.1871V34.2056C77.4767 25.9164 74.3355 17.9197 68.6303 11.9414C63.5298 6.9659 56.8969 3.88872 49.8256 3.21729V30.1593C49.813 37.8393 52.6179 45.2535 57.7023 50.9797C62.7867 56.7059 69.7925 60.3408 77.3758 61.1871Z" fill="#00C5DE"/>
<path d="M138.163 87.7937C137.426 80.0839 133.863 72.9269 128.167 67.7192C122.471 62.5115 115.052 59.6267 107.358 59.6279H80.6897C80.6997 63.3639 81.4459 67.0607 82.8852 70.5044C84.3244 73.948 86.4281 77.07 89.0743 79.6896C91.7206 82.3092 94.8568 84.3744 98.3015 85.7655C101.746 87.1565 105.431 87.8459 109.142 87.7937H138.163Z" fill="#00C5DE"/>
<path d="M77.3758 61.1871V34.2056C77.4767 25.9164 74.3355 17.9197 68.6303 11.9414C63.5298 6.9659 56.8969 3.88872 49.8256 3.21729V30.1593C49.813 37.8393 52.6179 45.2535 57.7023 50.9797C62.7867 56.7059 69.7925 60.3408 77.3758 61.1871Z" fill="#2E7AC5"/>
<path d="M138.163 87.7937C137.426 80.0839 133.863 72.9269 128.167 67.7192C122.471 62.5115 115.052 59.6267 107.358 59.6279H80.6897C80.6997 63.3639 81.4459 67.0607 82.8852 70.5044C84.3244 73.948 86.4281 77.07 89.0743 79.6896C91.7206 82.3092 94.8568 84.3744 98.3015 85.7655C101.746 87.1565 105.431 87.8459 109.142 87.7937H138.163Z" fill="#2E7AC5"/>
<path d="M115.946 21.8892C115.186 21.8945 114.433 21.7468 113.73 21.455C112.691 21.0152 111.805 20.2731 111.187 19.3237C110.569 18.3744 110.246 17.2609 110.26 16.1258C110.236 15.3374 110.37 14.5523 110.652 13.8165C110.943 13.1366 111.365 12.5214 111.893 12.0064C112.421 11.4915 113.046 11.087 113.73 10.8164C114.451 10.5146 115.224 10.3603 116.005 10.3624C116.78 10.3581 117.547 10.5126 118.26 10.8164C118.936 11.0903 119.55 11.5 120.064 12.0204C120.593 12.5314 121.008 13.1505 121.28 13.8362C121.58 14.5617 121.733 15.3401 121.731 16.1258C121.733 16.8988 121.58 17.6642 121.28 18.3759C121.008 19.0687 120.602 19.6996 120.084 20.2313C119.555 20.7474 118.937 21.1621 118.26 21.455C117.527 21.76 116.739 21.9079 115.946 21.8892ZM115.946 21.2576C116.619 21.2531 117.284 21.1191 117.907 20.8629C118.551 20.619 119.134 20.2349 119.613 19.7378C120.072 19.2689 120.432 18.7118 120.672 18.0996C121.168 16.8311 121.168 15.4205 120.672 14.152C120.434 13.5273 120.074 12.9568 119.613 12.4743C119.164 12.0056 118.623 11.6359 118.025 11.3888C116.76 10.9137 115.368 10.9137 114.103 11.3888C113.499 11.6355 112.951 12.0051 112.495 12.4743C112.041 12.9394 111.681 13.4891 111.436 14.0928C110.94 15.3952 110.94 16.8367 111.436 18.1391C111.676 18.7512 112.036 19.3084 112.495 19.7773C112.951 20.2465 113.499 20.6161 114.103 20.8629C114.689 21.1044 115.313 21.2381 115.946 21.2576ZM113.73 19.5404V12.7309H116.436C117.041 12.6948 117.639 12.8767 118.123 13.2441C118.315 13.4338 118.467 13.6614 118.568 13.9127C118.669 14.164 118.718 14.4336 118.711 14.7047C118.724 14.9736 118.678 15.2421 118.576 15.4911C118.475 15.7401 118.32 15.9635 118.123 16.1456C117.639 16.5129 117.041 16.6948 116.436 16.6587C116.702 16.6518 116.965 16.7129 117.201 16.8364C117.388 16.9792 117.542 17.161 117.652 17.3693L118.986 19.5404H117.966L116.633 17.3693C116.529 17.1552 116.366 16.9766 116.162 16.8561C115.946 16.7586 115.712 16.7114 115.476 16.7179H114.495V19.5404H113.73ZM114.632 15.9482H116.338C116.728 15.9856 117.118 15.8804 117.436 15.6521C117.538 15.5228 117.609 15.3727 117.647 15.2124C117.684 15.0521 117.686 14.8855 117.652 14.7244C117.671 14.5607 117.654 14.3948 117.604 14.2381C117.553 14.0814 117.469 13.9376 117.358 13.8165C117.039 13.5882 116.649 13.4831 116.26 13.5204H114.554L114.632 15.9482Z" fill="#B3B3B3"/>
</g>
<defs>
<clipPath id="clip0_94_453">
<rect width="451" height="143" fill="white"/>
</clipPath>
</defs>
</svg>
