<svg width="123" height="134" viewBox="0 0 123 134" fill="none" xmlns="http://www.w3.org/2000/svg">
<path opacity="0.3" d="M103.688 63.1232C103.688 63.1232 103.688 61.8125 103.688 54.8958C103.688 48.3354 101.287 41.6988 100.125 38.8734C101.298 38.614 102.377 38.3477 103.241 38.0883C106.409 37.1304 108.052 33.5994 106.627 30.6149C98.7975 14.2466 82.2286 3.02081 58.7292 3.02081C27.6042 3.02081 10.3125 20.2848 10.3125 47.9791V63.0679C6.23517 65.0011 3.39587 69.0992 3.39587 73.9166C3.39587 80.6016 8.81508 86.0208 15.5 86.0208C15.5727 86.0208 15.6384 86.0001 15.711 86.0001C21.1786 112.055 37.5953 130.979 57 130.979C76.4048 130.979 92.8215 112.055 98.2891 86.0001C98.3617 86.0001 98.4274 86.0208 98.5 86.0208C105.185 86.0208 110.604 80.6016 110.604 73.9166C110.604 69.1096 107.755 65.0564 103.688 63.1232Z" fill="url(#paint0_linear_2028_5)"/>
<path d="M39.7083 80.8333C43.5283 80.8333 46.625 77.7366 46.625 73.9167C46.625 70.0967 43.5283 67 39.7083 67C35.8883 67 32.7916 70.0967 32.7916 73.9167C32.7916 77.7366 35.8883 80.8333 39.7083 80.8333Z" fill="#41C3DA"/>
<path d="M74.2917 80.8333C78.1116 80.8333 81.2083 77.7366 81.2083 73.9167C81.2083 70.0967 78.1116 67 74.2917 67C70.4717 67 67.375 70.0967 67.375 73.9167C67.375 77.7366 70.4717 80.8333 74.2917 80.8333Z" fill="#41C3DA"/>
<path d="M31.0625 41.0625C37.7994 35.875 39.7084 30.6875 39.7084 30.6875C39.7084 30.6875 50.0834 41.0625 77.75 41.0625C89.1383 41.0625 98.5761 39.4993 103.241 38.0883C106.409 37.1304 108.052 33.5994 106.627 30.6149C98.7975 14.2466 82.2286 3.02081 58.7292 3.02081C27.6042 3.02081 10.3125 20.2848 10.3125 47.9791V63.0679C6.23517 65.0011 3.39587 69.0992 3.39587 73.9166C3.39587 80.6016 8.81508 86.0208 15.5 86.0208C15.5727 86.0208 15.6384 86.0001 15.711 86.0001C21.1786 112.055 37.5953 130.979 57 130.979" stroke="#41C3DA" stroke-width="5" stroke-linecap="round" stroke-linejoin="round"/>
<path d="M74.2916 110.229H82.9375C94.3984 110.229 103.687 100.94 103.687 89.4792C103.687 89.4792 103.687 72.0146 103.687 61.7814" stroke="#41C3DA" stroke-width="5" stroke-linecap="round" stroke-linejoin="round"/>
<mask id="path-6-inside-1_2028_5" fill="white">
<path d="M103.688 56.625H108.875C116.514 56.625 122.708 62.8189 122.708 70.4583V77.375C122.708 85.0145 116.514 91.2083 108.875 91.2083H103.688"/>
</mask>
<path d="M103.688 56.625H108.875C116.514 56.625 122.708 62.8189 122.708 70.4583V77.375C122.708 85.0145 116.514 91.2083 108.875 91.2083H103.688" fill="#41C3DA"/>
<path d="M103.688 56.625V61.625H108.875V56.625V51.625H103.688V56.625ZM108.875 56.625V61.625C113.753 61.625 117.708 65.5803 117.708 70.4583H122.708H127.708C127.708 60.0575 119.276 51.625 108.875 51.625V56.625ZM122.708 70.4583H117.708V77.375H122.708H127.708V70.4583H122.708ZM122.708 77.375H117.708C117.708 82.253 113.753 86.2083 108.875 86.2083V91.2083V96.2083C119.276 96.2083 127.708 87.7759 127.708 77.375H122.708ZM108.875 91.2083V86.2083H103.688V91.2083V96.2083H108.875V91.2083Z" fill="#41C3DA" mask="url(#path-6-inside-1_2028_5)"/>
<path d="M65.6455 102.083C70.1442 102.083 73.7918 105.73 73.792 110.229C73.792 114.728 70.1443 118.375 65.6455 118.375C61.1468 118.375 57.5 114.728 57.5 110.229C57.5002 105.73 61.1469 102.083 65.6455 102.083Z" fill="#41C3DA" stroke="#41C3DA"/>
<defs>
<linearGradient id="paint0_linear_2028_5" x1="99.707" y1="19.8733" x2="16.1813" y2="103.402" gradientUnits="userSpaceOnUse">
<stop stop-color="#41C3DA"/>
<stop offset="1" stop-color="white"/>
</linearGradient>
</defs>
</svg>
