<svg width="281" height="21" viewBox="0 0 281 21" fill="none" xmlns="http://www.w3.org/2000/svg">
<path d="M11.48 20.26C7.56267 20.26 4.67667 19.428 2.822 17.764C0.967333 16.1 0.0400001 13.7253 0.0400001 10.64C0.0400001 7.53733 0.967333 5.08467 2.822 3.282C4.67667 1.47933 7.56267 0.577999 11.48 0.577999C16.9573 0.577999 20.6233 2.45867 22.478 6.22C20.918 6.75733 19.0893 7.56333 16.992 8.638C16.4893 7.66733 15.692 6.948 14.6 6.48C13.5253 6.012 12.4247 5.778 11.298 5.778C9.634 5.778 8.39467 6.22 7.58 7.104C6.76533 7.97067 6.358 9.04533 6.358 10.328C6.358 11.7147 6.79133 12.85 7.658 13.734C8.542 14.6007 9.88533 15.034 11.688 15.034C13.1267 15.034 14.2707 14.8 15.12 14.332C15.9693 13.8467 16.5933 13.084 16.992 12.044C18.4133 12.8067 20.2333 13.6647 22.452 14.618C21.5853 16.7153 20.138 18.18 18.11 19.012C16.082 19.844 13.872 20.26 11.48 20.26ZM40.9733 20C40.644 19.012 40.202 17.7727 39.6473 16.282H31.3533L30.0533 20H23.5273L30.8073 1.124H40.3753L47.7073 20H40.9733ZM38.1653 12.226C37.5067 10.406 36.8307 8.586 36.1373 6.766L35.5133 5.076C34.9067 6.65333 34.014 9.03667 32.8353 12.226H38.1653ZM69.9727 7.416C69.9727 8.924 69.6 10.198 68.8547 11.238C68.1267 12.278 66.87 13.032 65.0847 13.5C65.2927 13.7773 65.44 13.994 65.5267 14.15L69.7387 20H62.6667C61.904 18.5787 60.6994 16.568 59.0527 13.968H55.2307V20H49.0947C49.2334 16.6373 49.3027 13.4913 49.3027 10.562C49.3027 7.63267 49.2334 4.48667 49.0947 1.124H55.2307V1.15H60.5607C64.062 1.15 66.506 1.71333 67.8927 2.84C69.2794 3.96667 69.9727 5.492 69.9727 7.416ZM55.2307 6.142V9.106H58.7407C60.214 9.106 61.3234 9.06267 62.0687 8.976C62.8314 8.872 63.36 8.716 63.6547 8.508C63.9494 8.3 64.0967 7.99667 64.0967 7.598C64.0967 7.21667 63.958 6.922 63.6807 6.714C63.4034 6.506 62.8834 6.35867 62.1207 6.272C61.358 6.18533 60.2314 6.142 58.7407 6.142H55.2307ZM93.0869 6.584C90.3656 6.49733 87.7222 6.44533 85.1569 6.428V20H78.6569V6.428C76.0742 6.44533 73.4396 6.49733 70.7529 6.584V1.124H93.0869V6.584ZM97.6747 20.26C96.912 20.26 96.262 19.9913 95.7247 19.454C95.1873 18.8993 94.9187 18.2407 94.9187 17.478C94.9187 16.7153 95.1873 16.0653 95.7247 15.528C96.262 14.9907 96.912 14.722 97.6747 14.722C98.42 14.722 99.0613 14.9993 99.5987 15.554C100.153 16.0913 100.431 16.7327 100.431 17.478C100.431 18.2407 100.153 18.8993 99.5987 19.454C99.0613 19.9913 98.42 20.26 97.6747 20.26ZM124.051 1.124C123.929 4.05333 123.869 7.19933 123.869 10.562C123.869 13.9247 123.929 17.0707 124.051 20H117.941V12.928H108.373V20H102.263C102.401 16.6373 102.471 13.4913 102.471 10.562C102.471 7.63267 102.401 4.48667 102.263 1.124H108.373V8.196H117.941V1.124H124.051ZM137.7 20.26C133.731 20.26 130.81 19.402 128.938 17.686C127.066 15.9527 126.13 13.526 126.13 10.406C126.13 7.32067 127.057 4.91133 128.912 3.178C130.784 1.44467 133.713 0.577999 137.7 0.577999C141.704 0.577999 144.633 1.44467 146.488 3.178C148.36 4.91133 149.296 7.32067 149.296 10.406C149.296 13.5433 148.369 15.97 146.514 17.686C144.659 19.402 141.721 20.26 137.7 20.26ZM137.7 14.956C139.624 14.956 141.011 14.592 141.86 13.864C142.709 13.1187 143.134 11.966 143.134 10.406C143.134 8.88067 142.709 7.74533 141.86 7C141.011 6.25467 139.624 5.882 137.7 5.882C135.793 5.882 134.415 6.25467 133.566 7C132.717 7.74533 132.292 8.88067 132.292 10.406C132.292 11.9487 132.717 13.0927 133.566 13.838C134.415 14.5833 135.793 14.956 137.7 14.956ZM151.368 17.764C151.957 16.88 152.443 16.0567 152.824 15.294C153.223 14.5313 153.604 13.6473 153.968 12.642C155.199 13.3527 156.629 13.9073 158.258 14.306C159.887 14.7047 161.404 14.904 162.808 14.904C164.247 14.904 165.261 14.7827 165.85 14.54C166.439 14.28 166.734 14.0027 166.734 13.708C166.734 12.6507 165.122 12.122 161.898 12.122C158.362 12.122 155.797 11.758 154.202 11.03C152.607 10.2847 151.81 9.08867 151.81 7.442C151.81 5.102 152.781 3.37733 154.722 2.268C156.663 1.15867 159.185 0.603999 162.288 0.603999C164.091 0.603999 165.937 0.837999 167.826 1.306C169.733 1.75667 171.449 2.38067 172.974 3.178C172.471 4.322 171.943 5.71733 171.388 7.364C171.284 7.71067 171.197 7.97067 171.128 8.144C170.244 7.43333 168.909 6.844 167.124 6.376C165.339 5.89067 163.761 5.648 162.392 5.648C160.745 5.648 159.636 5.76067 159.064 5.986C158.492 6.194 158.206 6.506 158.206 6.922C158.206 7.338 158.596 7.676 159.376 7.936C160.173 8.17867 161.317 8.3 162.808 8.3C166.483 8.3 169.152 8.72467 170.816 9.574C172.48 10.406 173.312 11.6887 173.312 13.422C173.312 15.8487 172.428 17.5993 170.66 18.674C168.892 19.7313 166.214 20.26 162.626 20.26C160.702 20.26 158.743 20.052 156.75 19.636C154.757 19.2027 152.963 18.5787 151.368 17.764ZM187.192 1.15C190.641 1.15 193.042 1.76533 194.394 2.996C195.746 4.20933 196.422 5.92533 196.422 8.144C196.422 9.66933 196.153 10.9693 195.616 12.044C195.078 13.1013 194.134 13.9333 192.782 14.54C191.43 15.1293 189.566 15.424 187.192 15.424H181.784V20H175.388C175.526 16.6373 175.596 13.4913 175.596 10.562C175.596 7.63267 175.526 4.48667 175.388 1.124H181.784V1.15H187.192ZM185.372 10.406C186.81 10.406 187.885 10.354 188.596 10.25C189.324 10.1287 189.826 9.92067 190.104 9.626C190.398 9.33133 190.546 8.898 190.546 8.326C190.546 7.754 190.407 7.32933 190.13 7.052C189.87 6.75733 189.376 6.558 188.648 6.454C187.937 6.35 186.845 6.298 185.372 6.298H181.784V10.406H185.372ZM213.599 6.298C211.536 6.194 210.011 6.13333 209.023 6.116V15.008C210.028 14.9907 211.554 14.93 213.599 14.826V20H198.493V14.826C200.486 14.93 202.003 14.9907 203.043 15.008V6.116C202.003 6.13333 200.486 6.194 198.493 6.298V1.124H213.599V6.298ZM238.017 6.584C235.295 6.49733 232.652 6.44533 230.087 6.428V20H223.587V6.428C221.004 6.44533 218.369 6.49733 215.683 6.584V1.124H238.017V6.584ZM254.432 20C254.103 19.012 253.661 17.7727 253.106 16.282H244.812L243.512 20H236.986L244.266 1.124H253.834L261.166 20H254.432ZM251.624 12.226C250.966 10.406 250.29 8.586 249.596 6.766L248.972 5.076C248.366 6.65333 247.473 9.03667 246.294 12.226H251.624ZM268.39 14.748C273.417 14.7133 277.577 14.6267 280.87 14.488C280.645 15.372 280.506 16.2213 280.454 17.036C280.402 17.8507 280.376 18.8387 280.376 20H262.046C262.185 16.6373 262.254 13.4913 262.254 10.562C262.254 7.63267 262.185 4.48667 262.046 1.124H268.39V14.748Z" fill="#333333"/>
</svg>
