<svg width="45" height="45" viewBox="0 0 45 45" fill="none" xmlns="http://www.w3.org/2000/svg">
<g clip-path="url(#clip0_96_655)">
<path d="M44.9999 29.9578H0.943604V15.8255C0.943604 15.018 1.3517 14.2659 2.02414 13.8351L21.1145 0.545064C22.2495 -0.182339 23.6941 -0.182339 24.8291 0.545064L43.9194 13.8351C44.5918 14.2671 44.9999 15.018 44.9999 15.8255V29.9578Z" fill="url(#paint0_linear_96_655)"/>
<path d="M40.5944 34.5313H5.34937V14.5591C5.34937 13.9106 5.87569 13.3843 6.5242 13.3843H39.4196C40.0681 13.3843 40.5944 13.9106 40.5944 14.5591V34.5313Z" fill="url(#paint1_linear_96_655)"/>
<path d="M45.0001 16.0278V41.2716C45.0001 42.4152 44.0586 43.3428 42.8966 43.3428H5.34937L11.0444 35.8288L45.0001 16.0278Z" fill="url(#paint2_linear_96_655)"/>
<path d="M0.943848 16.0278V41.2716C0.943848 42.4152 1.87406 43.3428 3.02219 43.3428H43.3858C44.0419 43.3428 44.6194 43.034 45.0002 42.5613L0.943848 16.0278Z" fill="url(#paint3_linear_96_655)"/>
</g>
<defs>
<linearGradient id="paint0_linear_96_655" x1="17.0833" y1="2.0187" x2="24.4999" y2="26.6752" gradientUnits="userSpaceOnUse">
<stop stop-color="#0078D3"/>
<stop offset="1" stop-color="#0858A1"/>
</linearGradient>
<linearGradient id="paint1_linear_96_655" x1="22.9719" y1="13.8472" x2="22.9719" y2="29.2258" gradientUnits="userSpaceOnUse">
<stop stop-color="white"/>
<stop offset="0.24" stop-color="#F8F8F7"/>
<stop offset="1" stop-color="#E3E3E1"/>
</linearGradient>
<linearGradient id="paint2_linear_96_655" x1="24.7075" y1="29.0155" x2="39.0985" y2="49.5789" gradientUnits="userSpaceOnUse">
<stop stop-color="#3CCBF4"/>
<stop offset="1" stop-color="#1FA0E5"/>
</linearGradient>
<linearGradient id="paint3_linear_96_655" x1="-1.31257" y1="28.1842" x2="42.1258" y2="48.9651" gradientUnits="userSpaceOnUse">
<stop stop-color="#28AFEA"/>
<stop offset="1" stop-color="#0B88DA"/>
</linearGradient>
<clipPath id="clip0_96_655">
<rect width="44.0563" height="44.0563" fill="white" transform="translate(0.943604)"/>
</clipPath>
</defs>
</svg>
