<svg width="53" height="49" viewBox="0 0 53 49" fill="none" xmlns="http://www.w3.org/2000/svg">
<g clip-path="url(#clip0_98_713)">
<path d="M53 0H0V49H53V0Z" fill="white"/>
<path d="M0 24.5V49H26.5H53V24.5V0H26.5H0V24.5ZM27.4873 5.65281C28.7528 5.69788 30.2607 5.94582 31.607 6.33349C35.7447 7.52355 39.29 10.1065 41.839 13.7759C41.9782 13.9787 42.0948 14.1681 42.0948 14.1951C42.0948 14.2312 41.8929 14.2447 41.4486 14.2447H40.8024L40.5959 13.9517C40.026 13.1583 38.913 11.9142 38.1815 11.2605L37.8674 10.981L37.1 11.1749C35.7268 11.513 34.2144 11.7879 32.7065 11.9728C32.3655 12.0178 32.0872 12.0674 32.0872 12.081C32.0872 12.099 32.15 12.3154 32.2263 12.5588C32.4014 13.1403 32.6706 14.114 32.6706 14.1861C32.6706 14.2312 32.5315 14.2447 32.1097 14.2447H31.5532L31.4769 13.9833C31.441 13.8435 31.3647 13.5821 31.3198 13.4108C31.1762 12.9149 30.9563 12.2432 30.9204 12.2027C30.9025 12.1801 30.6063 12.1846 30.2652 12.2117C29.9286 12.2387 28.9727 12.2838 28.147 12.3154C26.5628 12.3695 24.3324 12.3199 22.8425 12.1937C22.4611 12.1621 22.1334 12.1486 22.1155 12.1666C22.0796 12.2027 21.7565 13.2169 21.6039 13.7894L21.4827 14.2447H20.9307C20.4236 14.2447 20.3743 14.2357 20.3743 14.1636C20.3743 14.0644 20.6301 13.1087 20.823 12.4912C20.8993 12.2568 20.9442 12.0494 20.9218 12.0314C20.9038 12.0178 20.6794 11.9773 20.4191 11.9502C19.194 11.8105 17.4169 11.4814 16.0571 11.1478L15.2179 10.9405L14.98 11.1433C14.2575 11.7654 13.0952 13.0456 12.4983 13.8706L12.229 14.2447H11.5694C11.2014 14.2447 10.9052 14.2312 10.9052 14.2177C10.9052 14.1591 11.6232 13.1583 12.0271 12.6444C13.7504 10.4762 15.8596 8.77222 18.3548 7.53257C20.2576 6.58593 22.1155 6.03146 24.301 5.74747C24.853 5.67535 26.316 5.59871 26.6571 5.62125C26.7423 5.62576 27.1193 5.64379 27.4873 5.65281ZM25.3781 15.9622C26.0782 16.0478 26.4731 16.0659 28.3534 16.0794L30.5165 16.0974V18.5316V20.9614H28.5868H26.6616L26.6481 20.4339L26.6346 19.902L26.3654 19.7938C25.5935 19.4873 24.5568 19.3205 23.4035 19.316C22.2681 19.316 21.7565 19.4152 21.2673 19.7443C20.7647 20.0733 20.6929 20.745 21.1102 21.1597C21.5456 21.6015 22.0796 21.7412 24.4581 22.0387C26.5135 22.3002 27.3078 22.467 28.3041 22.8592C28.7843 23.0485 29.3901 23.4046 29.7671 23.7247C30.3235 24.189 30.7813 24.9553 30.9922 25.7667C31.1493 26.3707 31.1942 27.5338 31.082 28.1513C30.889 29.2062 30.4941 29.9635 29.7716 30.6532C28.9907 31.4015 27.9854 31.8928 26.5987 32.2039C25.0684 32.551 22.9009 32.6051 20.7288 32.3571C19.9838 32.276 19.553 32.258 17.7624 32.2444L15.6622 32.2264V29.8147V27.4075H17.5919H19.5216V27.9034V28.3993L19.6966 28.4894C20.2666 28.7779 21.4379 28.9898 22.672 29.0168C24.7992 29.0709 25.755 28.6923 25.7595 27.7907C25.7595 27.4391 25.6608 27.2498 25.3646 27.0424C24.9338 26.7359 24.3279 26.5961 22.3937 26.3482C20.0691 26.0462 19.1491 25.8343 18.1394 25.3565C16.5283 24.5902 15.734 23.4226 15.5724 21.5834C15.4826 20.6098 15.6397 19.6992 16.0212 18.9058C16.8783 17.1252 18.8395 16.1019 21.8776 15.8495C22.488 15.7999 24.5972 15.8675 25.3781 15.9622ZM42.3641 15.9351C44.3656 16.2372 45.9588 16.9945 47.1929 18.2296C48.6963 19.7397 49.4233 21.6781 49.4188 24.1619C49.4188 25.352 49.2887 26.2445 48.979 27.1822C47.9244 30.3647 45.1914 32.267 41.3454 32.4969C39.3304 32.6141 37.2795 32.2129 35.812 31.4105C34.8202 30.8695 33.7656 29.9184 33.1957 29.0529C32.5046 27.9981 32.0782 26.79 31.9077 25.379C31.8404 24.8155 31.8539 23.3911 31.9301 22.8006C32.2981 20.0057 33.7881 17.887 36.1845 16.7466C37.1853 16.2732 38.2668 15.9892 39.6042 15.8495C40.0529 15.8044 41.8705 15.8585 42.3641 15.9351ZM14.4953 18.144V20.15H13.1939H11.8925V24.207V28.264H13.1939H14.4953V30.27V32.276L9.32549 32.267L4.15114 32.2535L4.13768 30.2565L4.12871 28.264H5.43014H6.73158V24.207V20.15L5.44361 20.1409L4.15114 20.1274L4.13768 18.1305L4.12871 16.138H9.31203H14.4953V18.144ZM12.3861 34.3811C12.9561 35.1925 14.2036 36.5855 14.9082 37.1985L15.164 37.4194L15.8955 37.2391C17.3002 36.892 18.6914 36.6351 20.1274 36.4592C20.5717 36.4052 20.9397 36.3556 20.9487 36.3511C20.9577 36.3465 20.8993 36.1437 20.823 35.8958C20.639 35.3143 20.3743 34.3496 20.3743 34.2504C20.3743 34.1783 20.4281 34.1693 20.9307 34.1693H21.4827L21.6039 34.6065C21.6712 34.85 21.8103 35.3188 21.9091 35.6523L22.0975 36.2519L22.3489 36.2248C23.7984 36.0761 27.5771 36.0355 29.3497 36.1527C29.9062 36.1888 30.4896 36.2203 30.6467 36.2203H30.9384L31.0909 35.747C31.1762 35.4856 31.3108 35.0303 31.3916 34.7328L31.5397 34.1918L32.1052 34.1783C32.4821 34.1693 32.6706 34.1828 32.6706 34.2144C32.6706 34.291 32.2802 35.6974 32.159 36.049L32.0468 36.3736L32.1904 36.3961C32.2712 36.4097 32.5854 36.4547 32.895 36.4908C34.2099 36.6576 35.8434 36.9686 37.0821 37.2842C37.7238 37.451 37.8001 37.46 37.8898 37.4014C38.1053 37.2571 39.0746 36.2879 39.5413 35.7605C39.8106 35.4495 40.2055 34.9672 40.4164 34.6832L40.8069 34.1693H41.4486C41.8031 34.1693 42.0948 34.1873 42.0948 34.2053C42.0948 34.2639 41.5025 35.1204 41.1569 35.5667C38.0604 39.5741 33.4874 42.1346 28.4297 42.6981C27.595 42.7882 25.1806 42.7747 24.3908 42.6755C20.2845 42.1436 16.8245 40.5208 13.8222 37.7169C12.79 36.7523 11.4975 35.1925 10.9321 34.2234C10.9052 34.1828 11.0443 34.1693 11.5694 34.1693H12.238L12.3861 34.3811Z" fill="#E30613"/>
<path d="M25.8897 6.77514C24.8531 7.13126 23.8658 8.25822 22.9593 10.1199C22.7528 10.5392 22.5733 10.9223 22.5599 10.9629C22.5374 11.026 22.5733 11.044 22.7663 11.0666C23.8792 11.1883 26.7963 11.2514 28.3849 11.1838C30.2922 11.1027 30.4717 11.0891 30.4717 11.0035C30.4717 10.8908 29.7986 9.53393 29.5113 9.07413C28.9279 8.12749 28.349 7.46935 27.7566 7.07717C27.1328 6.67146 26.5001 6.56778 25.8897 6.77514Z" fill="#E30613"/>
<path d="M23.3811 6.95124C20.9757 7.46062 19.0101 8.27654 16.9547 9.62888C16.4521 9.95795 16.2905 10.0977 16.4162 10.0977C16.4341 10.0977 16.7213 10.1608 17.0534 10.2329C18.1395 10.4809 20.4058 10.855 21.1956 10.9181L21.3661 10.9316L21.5546 10.4809C22.1021 9.19613 22.9548 7.7942 23.6459 7.06393C23.7985 6.90165 23.7985 6.89714 23.6953 6.90165C23.6324 6.90616 23.4933 6.92419 23.3811 6.95124Z" fill="#E30613"/>
<path d="M29.417 7.08628C29.7267 7.4469 30.2383 8.15463 30.4985 8.57386C30.8172 9.09226 31.2974 10.0389 31.5038 10.5663L31.6609 10.9585L31.9526 10.9314C33.3662 10.7917 36.7096 10.2012 36.7096 10.0885C36.7096 10.0659 36.4223 9.85859 36.0723 9.62869C34.1605 8.36199 32.0423 7.46043 29.9376 7.01415C29.2151 6.86089 29.2195 6.86089 29.417 7.08628Z" fill="#E30613"/>
<path d="M40.035 19.6584C38.5406 19.8883 37.67 20.9567 37.4007 22.886C37.2975 23.6388 37.3334 25.2571 37.4681 25.8882C37.8944 27.8626 38.9939 28.7867 40.8114 28.7011C41.7583 28.656 42.2744 28.4487 42.8354 27.8807C43.6162 27.1008 43.9304 26.0235 43.9349 24.1617C43.9349 22.6336 43.715 21.6644 43.1854 20.862C42.8174 20.2985 42.2206 19.8838 41.5564 19.7215C41.1839 19.6359 40.4075 19.5998 40.035 19.6584Z" fill="#E30613"/>
<path d="M24.5927 37.2167C23.381 37.2843 22.5507 37.3339 22.5373 37.3474C22.5014 37.3835 23.0668 38.551 23.363 39.0649C24.0003 40.1648 24.6286 40.9041 25.2748 41.3279C25.6966 41.6028 25.9524 41.693 26.3698 41.7291C26.7782 41.7606 27.0744 41.693 27.5321 41.4586C28.0482 41.1926 28.7932 40.4398 29.3003 39.669C29.6369 39.1596 30.4716 37.5593 30.4716 37.4241C30.4716 37.352 30.3773 37.3384 29.5067 37.2798C28.7707 37.2302 25.185 37.1852 24.5927 37.2167Z" fill="#E30613"/>
<path d="M20.8902 37.4916C20.8184 37.5006 20.3876 37.5592 19.9344 37.6223C18.8573 37.7711 18.0136 37.9153 17.0667 38.1182C16.4653 38.2489 16.3038 38.2985 16.3397 38.3436C16.4205 38.4428 17.6007 39.2046 18.1931 39.5336C19.7279 40.3946 21.3974 41.0302 23.0668 41.3819C23.4123 41.4585 23.7175 41.5171 23.7444 41.5171C23.7714 41.5171 23.6861 41.3909 23.5515 41.2331C22.8244 40.3992 22.1378 39.2632 21.5813 37.9785L21.3659 37.4826L21.1954 37.4781C21.1012 37.4736 20.9665 37.4781 20.8902 37.4916Z" fill="#E30613"/>
<path d="M31.5532 37.7442C31.3871 38.1679 30.8306 39.2768 30.5389 39.7591C30.2248 40.2821 29.8433 40.814 29.5112 41.1971C29.3721 41.3594 29.2689 41.4947 29.2779 41.5082C29.3273 41.5578 30.8531 41.1881 31.6698 40.9267C33.1373 40.4579 34.9863 39.5383 36.3236 38.6142L36.7185 38.3392L36.4807 38.2851C35.278 38.0056 33.8374 37.7442 32.693 37.5954C32.2981 37.5458 31.9032 37.4962 31.8179 37.4827C31.6609 37.4647 31.6609 37.4647 31.5532 37.7442Z" fill="#E30613"/>
</g>
<defs>
<clipPath id="clip0_98_713">
<rect width="53" height="49" fill="white"/>
</clipPath>
</defs>
</svg>
