<svg width="45" height="45" viewBox="0 0 45 45" fill="none" xmlns="http://www.w3.org/2000/svg">
<g clip-path="url(#clip0_96_644)">
<path d="M22.0282 44.0563C34.194 44.0563 44.0563 34.194 44.0563 22.0282C44.0563 9.86235 34.194 0 22.0282 0C9.86235 0 0 9.86235 0 22.0282C0 34.194 9.86235 44.0563 22.0282 44.0563Z" fill="url(#paint0_linear_96_644)"/>
<path fill-rule="evenodd" clip-rule="evenodd" d="M9.97121 21.7954C16.3929 18.9976 20.675 17.1531 22.8175 16.262C28.935 13.7175 30.2062 13.2755 31.0347 13.2609C31.2169 13.2577 31.6243 13.3028 31.8883 13.517C32.1111 13.6978 32.1724 13.9421 32.2018 14.1136C32.2311 14.285 32.2677 14.6756 32.2386 14.9807C31.9071 18.4639 30.4727 26.9166 29.7429 30.8179C29.4341 32.4686 28.8261 33.0221 28.2375 33.0763C26.9583 33.194 25.9869 32.2309 24.7479 31.4187C22.8092 30.1478 21.7139 29.3567 19.832 28.1165C17.6571 26.6833 19.067 25.8956 20.3064 24.6083C20.6308 24.2714 26.2671 19.1448 26.3762 18.6797C26.3898 18.6215 26.4025 18.4047 26.2737 18.2902C26.1449 18.1757 25.9548 18.2149 25.8176 18.246C25.6231 18.2902 22.5259 20.3373 16.526 24.3874C15.6468 24.9911 14.8505 25.2853 14.1371 25.2698C13.3506 25.2528 11.8376 24.8251 10.7129 24.4595C9.33339 24.0111 8.23698 23.774 8.33246 23.0124C8.38218 22.6158 8.92844 22.2101 9.97121 21.7954Z" fill="white"/>
</g>
<defs>
<linearGradient id="paint0_linear_96_644" x1="22.0282" y1="0" x2="22.0282" y2="43.7296" gradientUnits="userSpaceOnUse">
<stop stop-color="#2AABEE"/>
<stop offset="1" stop-color="#229ED9"/>
</linearGradient>
<clipPath id="clip0_96_644">
<rect width="44.0563" height="44.0563" fill="white"/>
</clipPath>
</defs>
</svg>
